NotoSerifArmenian-CondensedLight.ufo
<glyph name="dieresiscomb" format="2">
  <unicode hex="0308"/>
  <anchor x="2" y="536" name="_top"/>
  <outline>
    <contour>
      <point x="68" y="662" type="curve" smooth="yes"/>
      <point x="84" y="662"/>
      <point x="91" y="670"/>
      <point x="91" y="698" type="curve" smooth="yes"/>
      <point x="91" y="728"/>
      <point x="84" y="736"/>
      <point x="68" y="736" type="curve" smooth="yes"/>
      <point x="52" y="736"/>
      <point x="45" y="728"/>
      <point x="45" y="698" type="curve" smooth="yes"/>
      <point x="45" y="670"/>
      <point x="52" y="662"/>
    </contour>
    <contour>
      <point x="-65" y="662" type="curve" smooth="yes"/>
      <point x="-49" y="662"/>
      <point x="-42" y="670"/>
      <point x="-42" y="698" type="curve" smooth="yes"/>
      <point x="-42" y="728"/>
      <point x="-49" y="736"/>
      <point x="-65" y="736" type="curve" smooth="yes"/>
      <point x="-82" y="736"/>
      <point x="-87" y="728"/>
      <point x="-87" y="698" type="curve" smooth="yes"/>
      <point x="-87" y="670"/>
      <point x="-82" y="662"/>
    </contour>
  </outline>
</glyph>
<glyph name="uni0531" format="2">
  <advance width="578"/>
  <unicode hex="0531"/>
  <note>
uni0531
</note>
  <anchor x="263" y="714" name="top"/>
  <outline>
    <contour>
      <point x="355" y="714" type="line"/>
      <point x="355" y="694" type="line"/>
      <point x="405" y="694"/>
      <point x="411" y="683"/>
      <point x="411" y="607" type="curve" smooth="yes"/>
      <point x="411" y="202" type="line" smooth="yes"/>
      <point x="411" y="114"/>
      <point x="372" y="15"/>
      <point x="260" y="15" type="curve" smooth="yes"/>
      <point x="172" y="15"/>
      <point x="114" y="74"/>
      <point x="114" y="210" type="curve" smooth="yes"/>
      <point x="114" y="714" type="line"/>
      <point x="36" y="714" type="line"/>
      <point x="36" y="694" type="line"/>
      <point x="82" y="694"/>
      <point x="86" y="683"/>
      <point x="86" y="609" type="curve" smooth="yes"/>
      <point x="86" y="214" type="line" smooth="yes"/>
      <point x="86" y="55"/>
      <point x="156" y="-10"/>
      <point x="259" y="-10" type="curve" smooth="yes"/>
      <point x="382" y="-10"/>
      <point x="439" y="89"/>
      <point x="439" y="200" type="curve" smooth="yes"/>
      <point x="439" y="714" type="line"/>
    </contour>
    <contour>
      <point x="432" y="217" type="curve"/>
      <point x="432" y="190" type="line"/>
      <point x="444" y="197"/>
      <point x="459" y="200"/>
      <point x="478" y="200" type="curve" smooth="yes"/>
      <point x="512" y="200"/>
      <point x="532" y="176"/>
      <point x="532" y="116" type="curve" smooth="yes"/>
      <point x="532" y="0" type="line"/>
      <point x="560" y="0" type="line"/>
      <point x="560" y="115" type="line" smooth="yes"/>
      <point x="560" y="201"/>
      <point x="529" y="225"/>
      <point x="480" y="225" type="curve" smooth="yes"/>
      <point x="461" y="225"/>
      <point x="446" y="222"/>
    </contour>
  </outline>
</glyph>
<glyph name="uni0532" format="2">
  <advance width="499"/>
  <unicode hex="0532"/>
  <note>
uni0532
</note>
  <outline>
    <contour>
      <point x="168" y="0" type="line"/>
      <point x="168" y="20" type="line"/>
      <point x="118" y="20"/>
      <point x="112" y="31"/>
      <point x="112" y="107" type="curve" smooth="yes"/>
      <point x="112" y="512" type="line" smooth="yes"/>
      <point x="112" y="600"/>
      <point x="151" y="699"/>
      <point x="263" y="699" type="curve" smooth="yes"/>
      <point x="351" y="699"/>
      <point x="409" y="640"/>
      <point x="409" y="504" type="curve" smooth="yes"/>
      <point x="409" y="410" type="line"/>
      <point x="437" y="410" type="line"/>
      <point x="437" y="500" type="line" smooth="yes"/>
      <point x="437" y="659"/>
      <point x="367" y="724"/>
      <point x="264" y="724" type="curve" smooth="yes"/>
      <point x="141" y="724"/>
      <point x="84" y="625"/>
      <point x="84" y="514" type="curve" smooth="yes"/>
      <point x="84" y="0" type="line"/>
    </contour>
    <contour>
      <point x="99" y="317" type="line"/>
      <point x="429" y="317" type="line"/>
      <point x="429" y="342" type="line"/>
      <point x="99" y="342" type="line"/>
    </contour>
  </outline>
</glyph>
<glyph name="uni0533" format="2">
  <advance width="517"/>
  <unicode hex="0533"/>
  <note>
uni0533
</note>
  <outline>
    <contour>
      <point x="373" y="0" type="line"/>
      <point x="451" y="0" type="line"/>
      <point x="451" y="20" type="line"/>
      <point x="405" y="20"/>
      <point x="401" y="31"/>
      <point x="401" y="105" type="curve" smooth="yes"/>
      <point x="401" y="500" type="line" smooth="yes"/>
      <point x="401" y="659"/>
      <point x="331" y="724"/>
      <point x="228" y="724" type="curve" smooth="yes"/>
      <point x="105" y="724"/>
      <point x="48" y="630"/>
      <point x="48" y="519" type="curve" smooth="yes"/>
      <point x="48" y="408"/>
      <point x="105" y="317"/>
      <point x="228" y="317" type="curve" smooth="yes"/>
      <point x="373" y="317" type="line"/>
    </contour>
    <contour>
      <point x="227" y="342" type="line" smooth="yes"/>
      <point x="115" y="342"/>
      <point x="76" y="433"/>
      <point x="76" y="519" type="curve" smooth="yes"/>
      <point x="76" y="605"/>
      <point x="115" y="699"/>
      <point x="227" y="699" type="curve" smooth="yes"/>
      <point x="315" y="699"/>
      <point x="373" y="640"/>
      <point x="373" y="504" type="curve" smooth="yes"/>
      <point x="373" y="342" type="line"/>
    </contour>
    <contour>
      <point x="388" y="317" type="line"/>
      <point x="511" y="317" type="line"/>
      <point x="511" y="342" type="line"/>
      <point x="388" y="342" type="line"/>
    </contour>
  </outline>
</glyph>
<glyph name="uni0534" format="2">
  <advance width="531"/>
  <unicode hex="0534"/>
  <note>
uni0534
</note>
  <outline>
    <contour>
      <point x="62" y="370" type="line"/>
      <point x="90" y="370" type="line"/>
      <point x="90" y="512" type="line" smooth="yes"/>
      <point x="90" y="600"/>
      <point x="129" y="699"/>
      <point x="241" y="699" type="curve" smooth="yes"/>
      <point x="329" y="699"/>
      <point x="387" y="640"/>
      <point x="387" y="504" type="curve" smooth="yes"/>
      <point x="387" y="0" type="line"/>
      <point x="465" y="0" type="line"/>
      <point x="465" y="20" type="line"/>
      <point x="419" y="20"/>
      <point x="415" y="31"/>
      <point x="415" y="105" type="curve" smooth="yes"/>
      <point x="415" y="500" type="line" smooth="yes"/>
      <point x="415" y="659"/>
      <point x="345" y="724"/>
      <point x="242" y="724" type="curve" smooth="yes"/>
      <point x="119" y="724"/>
      <point x="62" y="625"/>
      <point x="62" y="514" type="curve" smooth="yes"/>
    </contour>
    <contour>
      <point x="400" y="317" type="line"/>
      <point x="525" y="317" type="line"/>
      <point x="525" y="342" type="line"/>
      <point x="400" y="342" type="line"/>
    </contour>
  </outline>
</glyph>
<glyph name="uni0536" format="2">
  <advance width="432"/>
  <unicode hex="0536"/>
  <note>
uni0536
</note>
  <outline>
    <contour>
      <point x="210" y="285" type="curve" smooth="yes"/>
      <point x="330" y="285"/>
      <point x="387" y="382"/>
      <point x="387" y="507" type="curve" smooth="yes"/>
      <point x="387" y="631"/>
      <point x="336" y="728"/>
      <point x="215" y="728" type="curve" smooth="yes"/>
      <point x="102" y="728"/>
      <point x="35" y="642"/>
      <point x="35" y="507" type="curve" smooth="yes"/>
      <point x="35" y="380"/>
      <point x="94" y="285"/>
    </contour>
    <contour>
      <point x="43" y="0" type="line"/>
      <point x="71" y="0" type="line"/>
      <point x="71" y="179" type="line"/>
      <point x="43" y="179" type="line"/>
    </contour>
    <contour>
      <point x="376" y="0" type="line"/>
      <point x="404" y="0" type="line"/>
      <point x="404" y="13" type="line" smooth="yes"/>
      <point x="404" y="99"/>
      <point x="370" y="123"/>
      <point x="317" y="123" type="curve" smooth="yes"/>
      <point x="57" y="123" type="line"/>
      <point x="57" y="98" type="line"/>
      <point x="313" y="98" type="line" smooth="yes"/>
      <point x="358" y="98"/>
      <point x="376" y="74"/>
      <point x="376" y="14" type="curve" smooth="yes"/>
    </contour>
    <contour>
      <point x="69" y="100" type="line"/>
      <point x="218" y="100"/>
      <point x="387" y="224"/>
      <point x="387" y="507" type="curve"/>
      <point x="362" y="507" type="line"/>
      <point x="362" y="248"/>
      <point x="209" y="123"/>
      <point x="69" y="123" type="curve"/>
    </contour>
    <contour>
      <point x="210" y="310" type="curve" smooth="yes"/>
      <point x="111" y="310"/>
      <point x="63" y="391"/>
      <point x="63" y="507" type="curve" smooth="yes"/>
      <point x="63" y="630"/>
      <point x="118" y="703"/>
      <point x="215" y="703" type="curve" smooth="yes"/>
      <point x="318" y="703"/>
      <point x="359" y="616"/>
      <point x="359" y="507" type="curve" smooth="yes"/>
      <point x="359" y="392"/>
      <point x="313" y="310"/>
    </contour>
  </outline>
</glyph>
<glyph name="uni0537" format="2">
  <advance width="392"/>
  <unicode hex="0537"/>
  <note>
uni0537
</note>
  <outline>
    <contour>
      <point x="114" y="30" type="line"/>
      <point x="114" y="714" type="line"/>
      <point x="36" y="714" type="line"/>
      <point x="36" y="694" type="line"/>
      <point x="82" y="694"/>
      <point x="86" y="683"/>
      <point x="86" y="609" type="curve" smooth="yes"/>
      <point x="86" y="0" type="line"/>
    </contour>
    <contour>
      <point x="99" y="457" type="line"/>
      <point x="339" y="457" type="line"/>
      <point x="339" y="482" type="line"/>
      <point x="99" y="482" type="line"/>
    </contour>
    <contour>
      <point x="250" y="90" type="curve" smooth="yes"/>
      <point x="203" y="90"/>
      <point x="140" y="67"/>
      <point x="86" y="25" type="curve"/>
      <point x="86" y="0" type="line"/>
      <point x="139" y="41"/>
      <point x="200" y="65"/>
      <point x="247" y="65" type="curve" smooth="yes"/>
      <point x="295" y="65"/>
      <point x="316" y="44"/>
      <point x="316" y="-36" type="curve" smooth="yes"/>
      <point x="316" y="-62" type="line"/>
      <point x="344" y="-62" type="line"/>
      <point x="344" y="-37" type="line" smooth="yes"/>
      <point x="344" y="63"/>
      <point x="309" y="90"/>
    </contour>
  </outline>
</glyph>
<glyph name="uni0538" format="2">
  <advance width="499"/>
  <unicode hex="0538"/>
  <note>
uni0538
</note>
  <outline>
    <contour>
      <point x="264" y="724" type="curve" smooth="yes"/>
      <point x="141" y="724"/>
      <point x="84" y="625"/>
      <point x="84" y="514" type="curve" smooth="yes"/>
      <point x="84" y="0" type="line"/>
      <point x="112" y="0" type="line"/>
      <point x="112" y="512" type="line" smooth="yes"/>
      <point x="112" y="600"/>
      <point x="151" y="699"/>
      <point x="263" y="699" type="curve" smooth="yes"/>
      <point x="351" y="699"/>
      <point x="409" y="640"/>
      <point x="409" y="504" type="curve" smooth="yes"/>
      <point x="409" y="410" type="line"/>
      <point x="437" y="410" type="line"/>
      <point x="437" y="500" type="line" smooth="yes"/>
      <point x="437" y="659"/>
      <point x="367" y="724"/>
    </contour>
    <contour>
      <point x="99" y="0" type="line"/>
      <point x="429" y="0" type="line"/>
      <point x="429" y="25" type="line"/>
      <point x="99" y="25" type="line"/>
    </contour>
  </outline>
</glyph>
<glyph name="uni0539" format="2">
  <advance width="533"/>
  <unicode hex="0539"/>
  <note>
uni0539
</note>
  <outline>
    <contour>
      <point x="168" y="0" type="line"/>
      <point x="168" y="20" type="line"/>
      <point x="118" y="20"/>
      <point x="112" y="31"/>
      <point x="112" y="107" type="curve" smooth="yes"/>
      <point x="112" y="512" type="line" smooth="yes"/>
      <point x="112" y="620"/>
      <point x="155" y="699"/>
      <point x="262" y="699" type="curve" smooth="yes"/>
      <point x="367" y="699"/>
      <point x="429" y="640"/>
      <point x="429" y="450" type="curve"/>
      <point x="457" y="450" type="line"/>
      <point x="457" y="659"/>
      <point x="383" y="724"/>
      <point x="263" y="724" type="curve" smooth="yes"/>
      <point x="145" y="724"/>
      <point x="84" y="645"/>
      <point x="84" y="514" type="curve" smooth="yes"/>
      <point x="84" y="0" type="line"/>
    </contour>
    <contour>
      <point x="367" y="430" type="curve" smooth="yes"/>
      <point x="429" y="430" type="line"/>
      <point x="429" y="229"/>
      <point x="392" y="163"/>
      <point x="323" y="163" type="curve" smooth="yes"/>
      <point x="262" y="163"/>
      <point x="231" y="215"/>
      <point x="231" y="297" type="curve" smooth="yes"/>
      <point x="231" y="401"/>
      <point x="291" y="430"/>
    </contour>
    <contour>
      <point x="527" y="455" type="line"/>
      <point x="366" y="455" type="line" smooth="yes"/>
      <point x="269" y="455"/>
      <point x="204" y="414"/>
      <point x="204" y="297" type="curve" smooth="yes"/>
      <point x="204" y="188"/>
      <point x="248" y="138"/>
      <point x="323" y="138" type="curve" smooth="yes"/>
      <point x="410" y="138"/>
      <point x="457" y="207"/>
      <point x="457" y="430" type="curve"/>
      <point x="527" y="430" type="line"/>
    </contour>
  </outline>
</glyph>
<glyph name="uni053A" format="2">
  <advance width="517"/>
  <unicode hex="053A"/>
  <note>
uni053A
</note>
  <outline>
    <contour>
      <point x="228" y="-10" type="curve" smooth="yes"/>
      <point x="331" y="-10"/>
      <point x="401" y="55"/>
      <point x="401" y="214" type="curve" smooth="yes"/>
      <point x="401" y="714" type="line"/>
      <point x="323" y="714" type="line"/>
      <point x="323" y="694" type="line"/>
      <point x="369" y="694"/>
      <point x="373" y="683"/>
      <point x="373" y="609" type="curve" smooth="yes"/>
      <point x="373" y="457" type="line"/>
      <point x="248" y="457" type="line" smooth="yes"/>
      <point x="105" y="457"/>
      <point x="48" y="353"/>
      <point x="48" y="225" type="curve" smooth="yes"/>
      <point x="48" y="98"/>
      <point x="105" y="-10"/>
    </contour>
    <contour>
      <point x="227" y="15" type="curve" smooth="yes"/>
      <point x="115" y="15"/>
      <point x="76" y="125"/>
      <point x="76" y="225" type="curve" smooth="yes"/>
      <point x="76" y="326"/>
      <point x="115" y="432"/>
      <point x="247" y="432" type="curve" smooth="yes"/>
      <point x="373" y="432" type="line"/>
      <point x="373" y="223" type="line" smooth="yes"/>
      <point x="373" y="73"/>
      <point x="315" y="15"/>
    </contour>
    <contour>
      <point x="388" y="457" type="line"/>
      <point x="388" y="432" type="line"/>
      <point x="511" y="432" type="line"/>
      <point x="511" y="457" type="line"/>
    </contour>
  </outline>
</glyph>
<glyph name="uni053B" format="2">
  <advance width="460"/>
  <unicode hex="053B"/>
  <note>
uni053B
</note>
  <outline>
    <contour>
      <point x="114" y="391" type="line" smooth="yes"/>
      <point x="114" y="458"/>
      <point x="176" y="529"/>
      <point x="265" y="529" type="curve" smooth="yes"/>
      <point x="341" y="529"/>
      <point x="382" y="484"/>
      <point x="382" y="379" type="curve" smooth="yes"/>
      <point x="382" y="263" type="line"/>
      <point x="408" y="263" type="line"/>
      <point x="408" y="391" type="line" smooth="yes"/>
      <point x="408" y="496"/>
      <point x="360" y="554"/>
      <point x="267" y="554" type="curve" smooth="yes"/>
      <point x="209" y="554"/>
      <point x="149" y="528"/>
      <point x="116" y="462" type="curve"/>
      <point x="112" y="462" type="line"/>
      <point x="113" y="482"/>
      <point x="114" y="503"/>
      <point x="114" y="524" type="curve" smooth="yes"/>
      <point x="114" y="714" type="line"/>
      <point x="36" y="714" type="line"/>
      <point x="36" y="694" type="line"/>
      <point x="82" y="694"/>
      <point x="86" y="683"/>
      <point x="86" y="609" type="curve" smooth="yes"/>
      <point x="86" y="0" type="line"/>
      <point x="164" y="0" type="line"/>
      <point x="164" y="20" type="line"/>
      <point x="118" y="20"/>
      <point x="114" y="31"/>
      <point x="114" y="105" type="curve" smooth="yes"/>
    </contour>
  </outline>
</glyph>
<glyph name="uni053C" format="2">
  <advance width="352"/>
  <unicode hex="053C"/>
  <note>
uni053C
</note>
  <outline>
    <contour>
      <point x="342" y="87" type="line"/>
      <point x="321" y="87" type="line"/>
      <point x="321" y="32"/>
      <point x="316" y="25"/>
      <point x="277" y="25" type="curve" smooth="yes"/>
      <point x="114" y="25" type="line"/>
      <point x="114" y="714" type="line"/>
      <point x="36" y="714" type="line"/>
      <point x="36" y="694" type="line"/>
      <point x="79" y="694"/>
      <point x="86" y="688"/>
      <point x="86" y="611" type="curve" smooth="yes"/>
      <point x="86" y="0" type="line"/>
      <point x="342" y="0" type="line"/>
    </contour>
  </outline>
</glyph>
<glyph name="uni053D" format="2">
  <advance width="510"/>
  <unicode hex="053D"/>
  <note>
uni053D
</note>
  <outline>
    <contour>
      <point x="114" y="105" type="curve" smooth="yes"/>
      <point x="114" y="714" type="line"/>
      <point x="36" y="714" type="line"/>
      <point x="36" y="694" type="line"/>
      <point x="82" y="694"/>
      <point x="86" y="683"/>
      <point x="86" y="609" type="curve" smooth="yes"/>
      <point x="86" y="0" type="line"/>
      <point x="164" y="0" type="line"/>
      <point x="164" y="20" type="line"/>
      <point x="118" y="20"/>
      <point x="114" y="31"/>
    </contour>
    <contour>
      <point x="386" y="540" type="line"/>
      <point x="425" y="540"/>
      <point x="430" y="533"/>
      <point x="430" y="473" type="curve" smooth="yes"/>
      <point x="430" y="331" type="line" smooth="yes"/>
      <point x="430" y="228"/>
      <point x="408" y="189"/>
      <point x="345" y="189" type="curve" smooth="yes"/>
      <point x="295" y="189"/>
      <point x="264" y="220"/>
      <point x="264" y="331" type="curve" smooth="yes"/>
      <point x="264" y="560" type="line"/>
      <point x="102" y="560" type="line"/>
      <point x="102" y="535" type="line"/>
      <point x="236" y="535" type="line"/>
      <point x="236" y="331" type="line" smooth="yes"/>
      <point x="236" y="206"/>
      <point x="276" y="164"/>
      <point x="345" y="164" type="curve" smooth="yes"/>
      <point x="422" y="164"/>
      <point x="458" y="213"/>
      <point x="458" y="334" type="curve" smooth="yes"/>
      <point x="458" y="560" type="line"/>
      <point x="386" y="560" type="line"/>
    </contour>
  </outline>
</glyph>
<glyph name="uni053E" format="2">
  <advance width="455"/>
  <unicode hex="053E"/>
  <note>
uni053E
</note>
  <outline>
    <contour>
      <point x="160" y="569" type="curve" smooth="yes"/>
      <point x="83" y="598"/>
      <point x="56" y="647"/>
      <point x="56" y="714" type="curve"/>
      <point x="30" y="714" type="line"/>
      <point x="30" y="635"/>
      <point x="65" y="580"/>
      <point x="149" y="547" type="curve" smooth="yes"/>
      <point x="330" y="475"/>
      <point x="388" y="359"/>
      <point x="388" y="230" type="curve" smooth="yes"/>
      <point x="388" y="96"/>
      <point x="323" y="15"/>
      <point x="224" y="15" type="curve" smooth="yes"/>
      <point x="111" y="15"/>
      <point x="63" y="91"/>
      <point x="63" y="234" type="curve" smooth="yes"/>
      <point x="63" y="430"/>
      <point x="222" y="704"/>
      <point x="316" y="704" type="curve" smooth="yes"/>
      <point x="346" y="704"/>
      <point x="368" y="693"/>
      <point x="368" y="620" type="curve"/>
      <point x="382" y="620"/>
      <point x="395" y="626"/>
      <point x="395" y="646" type="curve" smooth="yes"/>
      <point x="395" y="700"/>
      <point x="367" y="729"/>
      <point x="319" y="729" type="curve" smooth="yes"/>
      <point x="205" y="729"/>
      <point x="35" y="439"/>
      <point x="35" y="234" type="curve" smooth="yes"/>
      <point x="35" y="74"/>
      <point x="94" y="-10"/>
      <point x="224" y="-10" type="curve" smooth="yes"/>
      <point x="341" y="-10"/>
      <point x="416" y="79"/>
      <point x="416" y="230" type="curve" smooth="yes"/>
      <point x="416" y="374"/>
      <point x="348" y="499"/>
    </contour>
  </outline>
</glyph>
<glyph name="uni053F" format="2">
  <advance width="490"/>
  <unicode hex="053F"/>
  <note>
uni053F
</note>
  <outline>
    <contour>
      <point x="376" y="0" type="line"/>
      <point x="454" y="0" type="line"/>
      <point x="454" y="20" type="line"/>
      <point x="408" y="20"/>
      <point x="404" y="31"/>
      <point x="404" y="105" type="curve" smooth="yes"/>
      <point x="404" y="474" type="line"/>
      <point x="326" y="474" type="line"/>
      <point x="326" y="454" type="line"/>
      <point x="372" y="454"/>
      <point x="376" y="443"/>
      <point x="376" y="369" type="curve" smooth="yes"/>
      <point x="376" y="321" type="line" smooth="yes"/>
      <point x="376" y="254"/>
      <point x="314" y="185"/>
      <point x="225" y="185" type="curve" smooth="yes"/>
      <point x="149" y="185"/>
      <point x="108" y="230"/>
      <point x="108" y="335" type="curve" smooth="yes"/>
      <point x="108" y="714" type="line"/>
      <point x="32" y="714" type="line"/>
      <point x="32" y="694" type="line"/>
      <point x="78" y="694"/>
      <point x="82" y="683"/>
      <point x="82" y="609" type="curve" smooth="yes"/>
      <point x="82" y="323" type="line" smooth="yes"/>
      <point x="82" y="218"/>
      <point x="130" y="160"/>
      <point x="223" y="160" type="curve" smooth="yes"/>
      <point x="281" y="160"/>
      <point x="341" y="186"/>
      <point x="374" y="252" type="curve"/>
      <point x="378" y="252" type="line"/>
      <point x="377" y="232"/>
      <point x="376" y="211"/>
      <point x="376" y="190" type="curve" smooth="yes"/>
    </contour>
  </outline>
</glyph>
<glyph name="uni0540" format="2">
  <advance width="385"/>
  <unicode hex="0540"/>
  <note>
uni0540
</note>
  <outline>
    <contour>
      <point x="302" y="-63" type="line"/>
      <point x="330" y="-63" type="line"/>
      <point x="330" y="-50" type="line" smooth="yes"/>
      <point x="330" y="36"/>
      <point x="297" y="63"/>
      <point x="246" y="67" type="curve" smooth="yes"/>
      <point x="44" y="83" type="line"/>
      <point x="42" y="58" type="line"/>
      <point x="243" y="42" type="line" smooth="yes"/>
      <point x="278" y="39"/>
      <point x="302" y="12"/>
      <point x="302" y="-47" type="curve" smooth="yes"/>
    </contour>
    <contour>
      <point x="70" y="58" type="line"/>
      <point x="71" y="436"/>
      <point x="144" y="704"/>
      <point x="249" y="704" type="curve" smooth="yes"/>
      <point x="288" y="704"/>
      <point x="310" y="687"/>
      <point x="311" y="615" type="curve"/>
      <point x="324" y="615"/>
      <point x="337" y="621"/>
      <point x="337" y="641" type="curve" smooth="yes"/>
      <point x="337" y="694"/>
      <point x="308" y="729"/>
      <point x="250" y="729" type="curve" smooth="yes"/>
      <point x="121" y="729"/>
      <point x="43" y="463"/>
      <point x="42" y="58" type="curve"/>
    </contour>
  </outline>
</glyph>
<glyph name="uni0541" format="2">
  <advance width="437"/>
  <unicode hex="0541"/>
  <note>
uni0541
</note>
  <outline>
    <contour>
      <point x="197" y="346" type="curve" smooth="yes"/>
      <point x="111" y="346"/>
      <point x="63" y="420"/>
      <point x="63" y="525" type="curve" smooth="yes"/>
      <point x="63" y="637"/>
      <point x="118" y="703"/>
      <point x="203" y="703" type="curve" smooth="yes"/>
      <point x="308" y="703"/>
      <point x="359" y="604"/>
      <point x="359" y="459" type="curve" smooth="yes"/>
      <point x="359" y="443"/>
      <point x="358" y="429"/>
      <point x="357" y="415" type="curve"/>
      <point x="334" y="381"/>
      <point x="272" y="346"/>
    </contour>
    <contour>
      <point x="354" y="377" type="curve"/>
      <point x="338" y="191"/>
      <point x="254" y="15"/>
      <point x="139" y="15" type="curve" smooth="yes"/>
      <point x="96" y="15"/>
      <point x="64" y="46"/>
      <point x="64" y="93" type="curve" smooth="yes"/>
      <point x="64" y="145"/>
      <point x="90" y="184"/>
      <point x="147" y="184" type="curve" smooth="yes"/>
      <point x="250" y="184"/>
      <point x="277" y="-10"/>
      <point x="382" y="-10" type="curve" smooth="yes"/>
      <point x="399" y="-10"/>
      <point x="407" y="-1"/>
      <point x="407" y="15" type="curve"/>
      <point x="283" y="15"/>
      <point x="278" y="209"/>
      <point x="148" y="209" type="curve" smooth="yes"/>
      <point x="77" y="209"/>
      <point x="36" y="160"/>
      <point x="36" y="93" type="curve" smooth="yes"/>
      <point x="36" y="31"/>
      <point x="80" y="-10"/>
      <point x="139" y="-10" type="curve" smooth="yes"/>
      <point x="288" y="-10"/>
      <point x="387" y="224"/>
      <point x="387" y="460" type="curve" smooth="yes"/>
      <point x="387" y="631"/>
      <point x="318" y="728"/>
      <point x="203" y="728" type="curve" smooth="yes"/>
      <point x="102" y="728"/>
      <point x="35" y="649"/>
      <point x="35" y="525" type="curve" smooth="yes"/>
      <point x="35" y="408"/>
      <point x="94" y="321"/>
      <point x="195" y="321" type="curve" smooth="yes"/>
      <point x="271" y="321"/>
      <point x="325" y="347"/>
    </contour>
  </outline>
</glyph>
<glyph name="uni0542" format="2">
  <advance width="531"/>
  <unicode hex="0542"/>
  <note>
uni0542
</note>
  <outline>
    <contour>
      <point x="400" y="0" type="line"/>
      <point x="525" y="0" type="line"/>
      <point x="525" y="25" type="line"/>
      <point x="400" y="25" type="line"/>
    </contour>
    <contour>
      <point x="242" y="724" type="curve" smooth="yes"/>
      <point x="119" y="724"/>
      <point x="62" y="625"/>
      <point x="62" y="514" type="curve" smooth="yes"/>
      <point x="62" y="370" type="line"/>
      <point x="90" y="370" type="line"/>
      <point x="90" y="512" type="line" smooth="yes"/>
      <point x="90" y="600"/>
      <point x="129" y="699"/>
      <point x="241" y="699" type="curve" smooth="yes"/>
      <point x="329" y="699"/>
      <point x="387" y="640"/>
      <point x="387" y="504" type="curve" smooth="yes"/>
      <point x="387" y="0" type="line"/>
      <point x="415" y="0" type="line"/>
      <point x="415" y="500" type="line" smooth="yes"/>
      <point x="415" y="659"/>
      <point x="345" y="724"/>
    </contour>
  </outline>
</glyph>
<glyph name="uni0543" format="2">
  <advance width="517"/>
  <unicode hex="0543"/>
  <note>
uni0543
</note>
  <outline>
    <contour>
      <point x="453" y="0" type="line"/>
      <point x="453" y="455"/>
      <point x="386" y="618"/>
      <point x="38" y="618" type="curve"/>
      <point x="38" y="593" type="line"/>
      <point x="359" y="593"/>
      <point x="425" y="452"/>
      <point x="425" y="25" type="curve"/>
      <point x="216" y="25" type="line" smooth="yes"/>
      <point x="116" y="25"/>
      <point x="75" y="69"/>
      <point x="75" y="178" type="curve" smooth="yes"/>
      <point x="75" y="371"/>
      <point x="232" y="704"/>
      <point x="363" y="704" type="curve" smooth="yes"/>
      <point x="404" y="704"/>
      <point x="426" y="677"/>
      <point x="426" y="595" type="curve"/>
      <point x="440" y="595"/>
      <point x="453" y="601"/>
      <point x="453" y="621" type="curve" smooth="yes"/>
      <point x="453" y="684"/>
      <point x="424" y="729"/>
      <point x="364" y="729" type="curve" smooth="yes"/>
      <point x="212" y="729"/>
      <point x="47" y="378"/>
      <point x="47" y="179" type="curve" smooth="yes"/>
      <point x="47" y="54"/>
      <point x="95" y="0"/>
      <point x="216" y="0" type="curve" smooth="yes"/>
    </contour>
  </outline>
</glyph>
<glyph name="uni0544" format="2">
  <advance width="550"/>
  <unicode hex="0544"/>
  <note>
uni0544
</note>
  <outline>
    <contour>
      <point x="355" y="714" type="line"/>
      <point x="355" y="694" type="line"/>
      <point x="405" y="694"/>
      <point x="411" y="683"/>
      <point x="411" y="607" type="curve" smooth="yes"/>
      <point x="411" y="202" type="line" smooth="yes"/>
      <point x="411" y="114"/>
      <point x="372" y="15"/>
      <point x="260" y="15" type="curve" smooth="yes"/>
      <point x="172" y="15"/>
      <point x="114" y="74"/>
      <point x="114" y="210" type="curve" smooth="yes"/>
      <point x="114" y="714" type="line"/>
      <point x="36" y="714" type="line"/>
      <point x="36" y="694" type="line"/>
      <point x="82" y="694"/>
      <point x="86" y="683"/>
      <point x="86" y="609" type="curve" smooth="yes"/>
      <point x="86" y="214" type="line" smooth="yes"/>
      <point x="86" y="55"/>
      <point x="156" y="-10"/>
      <point x="259" y="-10" type="curve" smooth="yes"/>
      <point x="382" y="-10"/>
      <point x="439" y="89"/>
      <point x="439" y="200" type="curve" smooth="yes"/>
      <point x="439" y="714" type="line"/>
    </contour>
    <contour>
      <point x="461" y="689" type="line" smooth="yes"/>
      <point x="497" y="689"/>
      <point x="505" y="674"/>
      <point x="505" y="608" type="curve"/>
      <point x="522" y="608"/>
      <point x="532" y="619"/>
      <point x="532" y="638" type="curve" smooth="yes"/>
      <point x="532" y="687"/>
      <point x="510" y="714"/>
      <point x="466" y="714" type="curve" smooth="yes"/>
      <point x="436" y="714" type="line"/>
      <point x="436" y="689" type="line"/>
    </contour>
  </outline>
</glyph>
<glyph name="uni0545" format="2">
  <advance width="459"/>
  <unicode hex="0545"/>
  <note>
uni0545
</note>
  <outline>
    <contour>
      <point x="222" y="-11" type="curve" smooth="yes"/>
      <point x="336" y="-11"/>
      <point x="415" y="58"/>
      <point x="415" y="196" type="curve" smooth="yes"/>
      <point x="415" y="321"/>
      <point x="360" y="366"/>
      <point x="296" y="381" type="curve"/>
      <point x="366" y="409"/>
      <point x="393" y="462"/>
      <point x="393" y="563" type="curve" smooth="yes"/>
      <point x="393" y="673"/>
      <point x="327" y="724"/>
      <point x="239" y="724" type="curve" smooth="yes"/>
      <point x="109" y="724"/>
      <point x="83" y="635"/>
      <point x="83" y="595" type="curve" smooth="yes"/>
      <point x="83" y="565"/>
      <point x="93" y="552"/>
      <point x="104" y="552" type="curve"/>
      <point x="104" y="621"/>
      <point x="120" y="699"/>
      <point x="239" y="699" type="curve" smooth="yes"/>
      <point x="319" y="699"/>
      <point x="365" y="651"/>
      <point x="365" y="556" type="curve" smooth="yes"/>
      <point x="365" y="457"/>
      <point x="323" y="393"/>
      <point x="251" y="393" type="curve" smooth="yes"/>
      <point x="42" y="393" type="line"/>
      <point x="42" y="368" type="line"/>
      <point x="249" y="368" type="line" smooth="yes"/>
      <point x="332" y="368"/>
      <point x="387" y="310"/>
      <point x="387" y="196" type="curve" smooth="yes"/>
      <point x="387" y="65"/>
      <point x="317" y="14"/>
      <point x="223" y="14" type="curve" smooth="yes"/>
      <point x="107" y="14"/>
      <point x="71" y="97"/>
      <point x="71" y="176" type="curve"/>
      <point x="53" y="176"/>
      <point x="48" y="161"/>
      <point x="48" y="130" type="curve" smooth="yes"/>
      <point x="48" y="81"/>
      <point x="90" y="-11"/>
    </contour>
  </outline>
</glyph>
<glyph name="uni0546" format="2">
  <advance width="478"/>
  <unicode hex="0546"/>
  <note>
uni0546
</note>
  <outline>
    <contour>
      <point x="243" y="-10" type="curve" smooth="yes"/>
      <point x="346" y="-10"/>
      <point x="416" y="55"/>
      <point x="416" y="214" type="curve" smooth="yes"/>
      <point x="416" y="414" type="line"/>
      <point x="388" y="414" type="line"/>
      <point x="388" y="210" type="line" smooth="yes"/>
      <point x="388" y="74"/>
      <point x="330" y="15"/>
      <point x="242" y="15" type="curve" smooth="yes"/>
      <point x="130" y="15"/>
      <point x="91" y="99"/>
      <point x="91" y="202" type="curve" smooth="yes"/>
      <point x="91" y="347"/>
      <point x="119" y="489"/>
      <point x="167" y="633" type="curve"/>
      <point x="135" y="622" type="line"/>
      <point x="90" y="481"/>
      <point x="63" y="341"/>
      <point x="63" y="200" type="curve" smooth="yes"/>
      <point x="63" y="74"/>
      <point x="120" y="-10"/>
    </contour>
    <contour>
      <point x="167" y="633" type="line"/>
      <point x="84" y="633"/>
      <point x="64" y="667"/>
      <point x="64" y="765" type="curve"/>
      <point x="46" y="765"/>
      <point x="36" y="751"/>
      <point x="36" y="731" type="curve" smooth="yes"/>
      <point x="36" y="653"/>
      <point x="73" y="608"/>
      <point x="154" y="608" type="curve"/>
    </contour>
  </outline>
</glyph>
<glyph name="uni0547" format="2">
  <advance width="459"/>
  <unicode hex="0547"/>
  <note>
uni0547
</note>
  <outline>
    <contour>
      <point x="31" y="671" type="line"/>
      <point x="64" y="691"/>
      <point x="97" y="700"/>
      <point x="119" y="700" type="curve" smooth="yes"/>
      <point x="218" y="700"/>
      <point x="246" y="597"/>
      <point x="351" y="597" type="curve" smooth="yes"/>
      <point x="420" y="597"/>
      <point x="449" y="643"/>
      <point x="449" y="714" type="curve"/>
      <point x="422" y="714" type="line"/>
      <point x="422" y="658"/>
      <point x="406" y="622"/>
      <point x="350" y="622" type="curve" smooth="yes"/>
      <point x="263" y="622"/>
      <point x="230" y="725"/>
      <point x="120" y="725" type="curve" smooth="yes"/>
      <point x="92" y="725"/>
      <point x="61" y="716"/>
      <point x="30" y="698" type="curve"/>
    </contour>
    <contour>
      <point x="276" y="628" type="curve"/>
      <point x="252" y="639" type="line"/>
      <point x="133" y="509"/>
      <point x="54" y="351"/>
      <point x="54" y="200" type="curve" smooth="yes"/>
      <point x="54" y="74"/>
      <point x="111" y="-10"/>
      <point x="234" y="-10" type="curve" smooth="yes"/>
      <point x="337" y="-10"/>
      <point x="407" y="55"/>
      <point x="407" y="214" type="curve" smooth="yes"/>
      <point x="407" y="294" type="line"/>
      <point x="379" y="294" type="line"/>
      <point x="379" y="210" type="line" smooth="yes"/>
      <point x="379" y="74"/>
      <point x="321" y="15"/>
      <point x="233" y="15" type="curve" smooth="yes"/>
      <point x="121" y="15"/>
      <point x="82" y="99"/>
      <point x="82" y="202" type="curve" smooth="yes"/>
      <point x="82" y="357"/>
      <point x="170" y="510"/>
    </contour>
  </outline>
</glyph>
<glyph name="uni0548" format="2">
  <advance width="523"/>
  <unicode hex="0548"/>
  <note>
uni0548
</note>
  <anchor x="261" y="714" name="top"/>
  <outline>
    <contour>
      <point x="168" y="0" type="line"/>
      <point x="168" y="20" type="line"/>
      <point x="118" y="20"/>
      <point x="112" y="31"/>
      <point x="112" y="107" type="curve" smooth="yes"/>
      <point x="112" y="512" type="line" smooth="yes"/>
      <point x="112" y="600"/>
      <point x="151" y="699"/>
      <point x="263" y="699" type="curve" smooth="yes"/>
      <point x="351" y="699"/>
      <point x="409" y="640"/>
      <point x="409" y="504" type="curve" smooth="yes"/>
      <point x="409" y="0" type="line"/>
      <point x="487" y="0" type="line"/>
      <point x="487" y="20" type="line"/>
      <point x="441" y="20"/>
      <point x="437" y="31"/>
      <point x="437" y="105" type="curve" smooth="yes"/>
      <point x="437" y="500" type="line" smooth="yes"/>
      <point x="437" y="659"/>
      <point x="367" y="724"/>
      <point x="264" y="724" type="curve" smooth="yes"/>
      <point x="141" y="724"/>
      <point x="84" y="625"/>
      <point x="84" y="514" type="curve" smooth="yes"/>
      <point x="84" y="0" type="line"/>
    </contour>
  </outline>
</glyph>
<glyph name="uni0549" format="2">
  <advance width="431"/>
  <unicode hex="0549"/>
  <note>
uni0549
</note>
  <outline>
    <contour>
      <point x="158" y="95" type="curve"/>
      <point x="181" y="83" type="line"/>
      <point x="307" y="206"/>
      <point x="391" y="363"/>
      <point x="391" y="514" type="curve" smooth="yes"/>
      <point x="391" y="640"/>
      <point x="334" y="724"/>
      <point x="211" y="724" type="curve" smooth="yes"/>
      <point x="108" y="724"/>
      <point x="38" y="659"/>
      <point x="38" y="500" type="curve" smooth="yes"/>
      <point x="38" y="480" type="line"/>
      <point x="66" y="480" type="line"/>
      <point x="66" y="504" type="line" smooth="yes"/>
      <point x="66" y="640"/>
      <point x="124" y="699"/>
      <point x="212" y="699" type="curve" smooth="yes"/>
      <point x="324" y="699"/>
      <point x="363" y="615"/>
      <point x="363" y="512" type="curve" smooth="yes"/>
      <point x="363" y="357"/>
      <point x="270" y="207"/>
    </contour>
    <contour>
      <point x="382" y="-10" type="curve"/>
      <point x="382" y="15" type="line"/>
      <point x="255" y="24"/>
      <point x="134" y="118"/>
      <point x="49" y="253" type="curve"/>
      <point x="24" y="238" type="line"/>
      <point x="113" y="104"/>
      <point x="230" y="2"/>
    </contour>
  </outline>
</glyph>
<glyph name="uni054A" format="2">
  <advance width="491"/>
  <unicode hex="054A"/>
  <note>
uni054A
</note>
  <outline>
    <contour>
      <point x="405" y="105" type="curve" smooth="yes"/>
      <point x="405" y="500" type="line" smooth="yes"/>
      <point x="405" y="659"/>
      <point x="335" y="724"/>
      <point x="232" y="724" type="curve" smooth="yes"/>
      <point x="109" y="724"/>
      <point x="52" y="625"/>
      <point x="52" y="514" type="curve" smooth="yes"/>
      <point x="52" y="340" type="line"/>
      <point x="80" y="340" type="line"/>
      <point x="80" y="512" type="line" smooth="yes"/>
      <point x="80" y="600"/>
      <point x="119" y="699"/>
      <point x="231" y="699" type="curve" smooth="yes"/>
      <point x="319" y="699"/>
      <point x="377" y="640"/>
      <point x="377" y="504" type="curve" smooth="yes"/>
      <point x="377" y="0" type="line"/>
      <point x="455" y="0" type="line"/>
      <point x="455" y="20" type="line"/>
      <point x="409" y="20"/>
      <point x="405" y="31"/>
    </contour>
    <contour>
      <point x="214" y="705" type="line"/>
      <point x="214" y="170" type="line"/>
      <point x="242" y="170" type="line"/>
      <point x="242" y="705" type="line"/>
    </contour>
  </outline>
</glyph>
<glyph name="uni054B" format="2">
  <advance width="421"/>
  <unicode hex="054B"/>
  <note>
uni054B
</note>
  <outline>
    <contour>
      <point x="32" y="0" type="line"/>
      <point x="60" y="0" type="line"/>
      <point x="60" y="179" type="line"/>
      <point x="32" y="179" type="line"/>
    </contour>
    <contour>
      <point x="365" y="0" type="line"/>
      <point x="393" y="0" type="line"/>
      <point x="393" y="13" type="line" smooth="yes"/>
      <point x="393" y="99"/>
      <point x="359" y="123"/>
      <point x="306" y="123" type="curve" smooth="yes"/>
      <point x="46" y="123" type="line"/>
      <point x="46" y="98" type="line"/>
      <point x="302" y="98" type="line" smooth="yes"/>
      <point x="347" y="98"/>
      <point x="365" y="74"/>
      <point x="365" y="14" type="curve" smooth="yes"/>
    </contour>
    <contour>
      <point x="162" y="142" type="curve"/>
      <point x="185" y="157" type="line"/>
      <point x="185" y="248"/>
      <point x="154" y="283"/>
      <point x="108" y="332" type="curve" smooth="yes"/>
      <point x="74" y="369"/>
      <point x="52" y="417"/>
      <point x="52" y="507" type="curve" smooth="yes"/>
      <point x="52" y="630"/>
      <point x="107" y="703"/>
      <point x="204" y="703" type="curve" smooth="yes"/>
      <point x="307" y="703"/>
      <point x="348" y="616"/>
      <point x="348" y="483" type="curve" smooth="yes"/>
      <point x="348" y="394"/>
      <point x="320" y="316"/>
      <point x="279" y="255" type="curve" smooth="yes"/>
      <point x="223" y="173"/>
      <point x="141" y="123"/>
      <point x="66" y="123" type="curve"/>
      <point x="158" y="123" type="line"/>
      <point x="268" y="173"/>
      <point x="376" y="300"/>
      <point x="376" y="485" type="curve" smooth="yes"/>
      <point x="376" y="631"/>
      <point x="325" y="728"/>
      <point x="204" y="728" type="curve" smooth="yes"/>
      <point x="91" y="728"/>
      <point x="24" y="642"/>
      <point x="24" y="507" type="curve" smooth="yes"/>
      <point x="24" y="409"/>
      <point x="49" y="355"/>
      <point x="85" y="317" type="curve" smooth="yes"/>
      <point x="136" y="264"/>
      <point x="162" y="231"/>
    </contour>
  </outline>
</glyph>
<glyph name="uni054C" format="2">
  <advance width="578"/>
  <unicode hex="054C"/>
  <note>
uni054C
</note>
  <outline>
    <contour>
      <point x="168" y="0" type="line"/>
      <point x="168" y="20" type="line"/>
      <point x="118" y="20"/>
      <point x="112" y="31"/>
      <point x="112" y="107" type="curve" smooth="yes"/>
      <point x="112" y="512" type="line" smooth="yes"/>
      <point x="112" y="600"/>
      <point x="151" y="699"/>
      <point x="263" y="699" type="curve" smooth="yes"/>
      <point x="351" y="699"/>
      <point x="409" y="640"/>
      <point x="409" y="504" type="curve" smooth="yes"/>
      <point x="409" y="0" type="line"/>
      <point x="487" y="0" type="line"/>
      <point x="487" y="20" type="line"/>
      <point x="441" y="20"/>
      <point x="437" y="31"/>
      <point x="437" y="105" type="curve" smooth="yes"/>
      <point x="437" y="500" type="line" smooth="yes"/>
      <point x="437" y="659"/>
      <point x="367" y="724"/>
      <point x="264" y="724" type="curve" smooth="yes"/>
      <point x="141" y="724"/>
      <point x="84" y="625"/>
      <point x="84" y="514" type="curve" smooth="yes"/>
      <point x="84" y="0" type="line"/>
    </contour>
    <contour>
      <point x="432" y="387" type="curve"/>
      <point x="432" y="360" type="line"/>
      <point x="444" y="367"/>
      <point x="459" y="370"/>
      <point x="478" y="370" type="curve" smooth="yes"/>
      <point x="512" y="370"/>
      <point x="532" y="346"/>
      <point x="532" y="286" type="curve" smooth="yes"/>
      <point x="532" y="210" type="line"/>
      <point x="560" y="210" type="line"/>
      <point x="560" y="285" type="line" smooth="yes"/>
      <point x="560" y="371"/>
      <point x="529" y="395"/>
      <point x="480" y="395" type="curve" smooth="yes"/>
      <point x="461" y="395"/>
      <point x="446" y="392"/>
    </contour>
  </outline>
</glyph>
<glyph name="uni054D" format="2">
  <advance width="523"/>
  <unicode hex="054D"/>
  <note>
uni054D
</note>
  <outline>
    <contour>
      <point x="355" y="714" type="line"/>
      <point x="355" y="694" type="line"/>
      <point x="405" y="694"/>
      <point x="411" y="683"/>
      <point x="411" y="607" type="curve" smooth="yes"/>
      <point x="411" y="202" type="line" smooth="yes"/>
      <point x="411" y="114"/>
      <point x="372" y="15"/>
      <point x="260" y="15" type="curve" smooth="yes"/>
      <point x="172" y="15"/>
      <point x="114" y="74"/>
      <point x="114" y="210" type="curve" smooth="yes"/>
      <point x="114" y="714" type="line"/>
      <point x="36" y="714" type="line"/>
      <point x="36" y="694" type="line"/>
      <point x="82" y="694"/>
      <point x="86" y="683"/>
      <point x="86" y="609" type="curve" smooth="yes"/>
      <point x="86" y="214" type="line" smooth="yes"/>
      <point x="86" y="55"/>
      <point x="156" y="-10"/>
      <point x="259" y="-10" type="curve" smooth="yes"/>
      <point x="382" y="-10"/>
      <point x="439" y="89"/>
      <point x="439" y="200" type="curve" smooth="yes"/>
      <point x="439" y="714" type="line"/>
    </contour>
  </outline>
</glyph>
<glyph name="uni054E" format="2">
  <advance width="520"/>
  <unicode hex="054E"/>
  <note>
uni054E
</note>
  <outline>
    <contour>
      <point x="326" y="714" type="line"/>
      <point x="326" y="694" type="line"/>
      <point x="372" y="694"/>
      <point x="376" y="683"/>
      <point x="376" y="609" type="curve" smooth="yes"/>
      <point x="376" y="321" type="line" smooth="yes"/>
      <point x="376" y="254"/>
      <point x="314" y="185"/>
      <point x="225" y="185" type="curve" smooth="yes"/>
      <point x="149" y="185"/>
      <point x="110" y="230"/>
      <point x="110" y="335" type="curve" smooth="yes"/>
      <point x="110" y="474" type="line"/>
      <point x="32" y="474" type="line"/>
      <point x="32" y="454" type="line"/>
      <point x="78" y="454"/>
      <point x="82" y="443"/>
      <point x="82" y="369" type="curve" smooth="yes"/>
      <point x="82" y="323" type="line" smooth="yes"/>
      <point x="82" y="218"/>
      <point x="130" y="160"/>
      <point x="223" y="160" type="curve" smooth="yes"/>
      <point x="281" y="160"/>
      <point x="341" y="186"/>
      <point x="374" y="252" type="curve"/>
      <point x="378" y="252" type="line"/>
      <point x="377" y="232"/>
      <point x="376" y="211"/>
      <point x="376" y="190" type="curve" smooth="yes"/>
      <point x="376" y="0" type="line"/>
      <point x="404" y="0" type="line"/>
      <point x="404" y="714" type="line"/>
    </contour>
    <contour>
      <point x="391" y="0" type="line"/>
      <point x="514" y="0" type="line"/>
      <point x="514" y="25" type="line"/>
      <point x="391" y="25" type="line"/>
    </contour>
  </outline>
</glyph>
<glyph name="uni054F" format="2">
  <advance width="382"/>
  <unicode hex="054F"/>
  <note>
uni054F
</note>
  <outline>
    <contour>
      <point x="189" y="-10" type="curve" smooth="yes"/>
      <point x="289" y="-10"/>
      <point x="340" y="54"/>
      <point x="340" y="172" type="curve" smooth="yes"/>
      <point x="340" y="284"/>
      <point x="278" y="328"/>
      <point x="204" y="376" type="curve" smooth="yes"/>
      <point x="127" y="426"/>
      <point x="91" y="463"/>
      <point x="91" y="557" type="curve" smooth="yes"/>
      <point x="91" y="638"/>
      <point x="127" y="699"/>
      <point x="202" y="699" type="curve" smooth="yes"/>
      <point x="270" y="699"/>
      <point x="306" y="648"/>
      <point x="306" y="573" type="curve"/>
      <point x="317" y="573"/>
      <point x="327" y="584"/>
      <point x="327" y="614" type="curve" smooth="yes"/>
      <point x="327" y="664"/>
      <point x="283" y="724"/>
      <point x="202" y="724" type="curve" smooth="yes"/>
      <point x="113" y="724"/>
      <point x="63" y="653"/>
      <point x="63" y="565" type="curve" smooth="yes"/>
      <point x="63" y="447"/>
      <point x="118" y="398"/>
      <point x="187" y="353" type="curve" smooth="yes"/>
      <point x="276" y="295"/>
      <point x="312" y="264"/>
      <point x="312" y="163" type="curve" smooth="yes"/>
      <point x="312" y="65"/>
      <point x="269" y="15"/>
      <point x="190" y="15" type="curve" smooth="yes"/>
      <point x="105" y="15"/>
      <point x="71" y="88"/>
      <point x="67" y="168" type="curve"/>
      <point x="51" y="168"/>
      <point x="48" y="140"/>
      <point x="48" y="124" type="curve" smooth="yes"/>
      <point x="48" y="64"/>
      <point x="89" y="-10"/>
    </contour>
  </outline>
</glyph>
<glyph name="uni0550" format="2">
  <advance width="489"/>
  <unicode hex="0550"/>
  <note>
uni0550
</note>
  <outline>
    <contour>
      <point x="264" y="724" type="curve" smooth="yes"/>
      <point x="141" y="724"/>
      <point x="84" y="625"/>
      <point x="84" y="514" type="curve" smooth="yes"/>
      <point x="84" y="0" type="line"/>
      <point x="168" y="0" type="line"/>
      <point x="168" y="20" type="line"/>
      <point x="118" y="20"/>
      <point x="112" y="31"/>
      <point x="112" y="107" type="curve" smooth="yes"/>
      <point x="112" y="512" type="line" smooth="yes"/>
      <point x="112" y="600"/>
      <point x="151" y="699"/>
      <point x="263" y="699" type="curve" smooth="yes"/>
      <point x="351" y="699"/>
      <point x="409" y="640"/>
      <point x="409" y="504" type="curve" smooth="yes"/>
      <point x="409" y="350" type="line"/>
      <point x="437" y="350" type="line"/>
      <point x="437" y="500" type="line" smooth="yes"/>
      <point x="437" y="659"/>
      <point x="367" y="724"/>
    </contour>
  </outline>
</glyph>
<glyph name="uni0551" format="2">
  <advance width="409"/>
  <unicode hex="0551"/>
  <note>
uni0551
</note>
  <outline>
    <contour>
      <point x="235" y="386" type="curve"/>
      <point x="235" y="389" type="line"/>
      <point x="296" y="412"/>
      <point x="354" y="463"/>
      <point x="354" y="564" type="curve" smooth="yes"/>
      <point x="354" y="660"/>
      <point x="298" y="724"/>
      <point x="203" y="724" type="curve" smooth="yes"/>
      <point x="86" y="724"/>
      <point x="48" y="625"/>
      <point x="48" y="564" type="curve" smooth="yes"/>
      <point x="48" y="478"/>
      <point x="80" y="416"/>
      <point x="165" y="385" type="curve"/>
      <point x="165" y="383" type="line"/>
      <point x="32" y="331" type="line"/>
      <point x="42" y="307" type="line"/>
      <point x="201" y="373" type="line"/>
      <point x="299" y="348"/>
      <point x="345" y="293"/>
      <point x="345" y="182" type="curve" smooth="yes"/>
      <point x="345" y="82"/>
      <point x="281" y="15"/>
      <point x="197" y="15" type="curve" smooth="yes"/>
      <point x="113" y="15"/>
      <point x="61" y="58"/>
      <point x="61" y="178" type="curve"/>
      <point x="43" y="178"/>
      <point x="33" y="165"/>
      <point x="33" y="148" type="curve" smooth="yes"/>
      <point x="33" y="44"/>
      <point x="97" y="-10"/>
      <point x="198" y="-10" type="curve" smooth="yes"/>
      <point x="303" y="-10"/>
      <point x="373" y="70"/>
      <point x="373" y="185" type="curve" smooth="yes"/>
      <point x="373" y="307"/>
      <point x="315" y="364"/>
    </contour>
    <contour>
      <point x="76" y="564" type="curve" smooth="yes"/>
      <point x="76" y="611"/>
      <point x="105" y="699"/>
      <point x="203" y="699" type="curve" smooth="yes"/>
      <point x="282" y="699"/>
      <point x="326" y="642"/>
      <point x="326" y="561" type="curve" smooth="yes"/>
      <point x="326" y="471"/>
      <point x="285" y="434"/>
      <point x="199" y="399" type="curve"/>
      <point x="100" y="434"/>
      <point x="76" y="484"/>
    </contour>
  </outline>
</glyph>
<glyph name="uni0552" format="2">
  <advance width="405"/>
  <unicode hex="0552"/>
  <note>
uni0552
</note>
  <outline>
    <contour>
      <point x="109" y="536" type="line"/>
      <point x="109" y="511" type="line"/>
      <point x="151" y="511" type="line" smooth="yes"/>
      <point x="209" y="511"/>
      <point x="220" y="496"/>
      <point x="262" y="368" type="curve" smooth="yes"/>
      <point x="311" y="219"/>
      <point x="322" y="214"/>
      <point x="369" y="214" type="curve" smooth="yes"/>
      <point x="393" y="214" type="line"/>
      <point x="393" y="239" type="line"/>
      <point x="375" y="239" type="line" smooth="yes"/>
      <point x="340" y="239"/>
      <point x="333" y="245"/>
      <point x="289" y="379" type="curve" smooth="yes"/>
      <point x="243" y="519"/>
      <point x="224" y="536"/>
      <point x="152" y="536" type="curve" smooth="yes"/>
    </contour>
    <contour>
      <point x="114" y="105" type="curve" smooth="yes"/>
      <point x="114" y="714" type="line"/>
      <point x="36" y="714" type="line"/>
      <point x="36" y="694" type="line"/>
      <point x="82" y="694"/>
      <point x="86" y="683"/>
      <point x="86" y="609" type="curve" smooth="yes"/>
      <point x="86" y="0" type="line"/>
      <point x="164" y="0" type="line"/>
      <point x="164" y="20" type="line"/>
      <point x="118" y="20"/>
      <point x="114" y="31"/>
    </contour>
  </outline>
</glyph>
<glyph name="uni0553" format="2">
  <advance width="484"/>
  <unicode hex="0553"/>
  <note>
uni0553
</note>
  <outline>
    <contour>
      <point x="268" y="134" type="line" smooth="yes"/>
      <point x="393" y="134"/>
      <point x="448" y="234"/>
      <point x="448" y="366" type="curve" smooth="yes"/>
      <point x="448" y="508"/>
      <point x="382" y="590"/>
      <point x="266" y="590" type="curve" smooth="yes"/>
      <point x="256" y="590" type="line"/>
      <point x="256" y="714" type="line"/>
      <point x="178" y="714" type="line"/>
      <point x="178" y="694" type="line"/>
      <point x="223" y="694"/>
      <point x="228" y="683"/>
      <point x="228" y="606" type="curve" smooth="yes"/>
      <point x="228" y="590" type="line"/>
      <point x="218" y="590" type="line" smooth="yes"/>
      <point x="93" y="590"/>
      <point x="36" y="496"/>
      <point x="36" y="360" type="curve" smooth="yes"/>
      <point x="36" y="222"/>
      <point x="94" y="134"/>
      <point x="216" y="134" type="curve" smooth="yes"/>
      <point x="228" y="134" type="line"/>
      <point x="228" y="0" type="line"/>
      <point x="306" y="0" type="line"/>
      <point x="306" y="20" type="line"/>
      <point x="261" y="20"/>
      <point x="256" y="31"/>
      <point x="256" y="108" type="curve" smooth="yes"/>
      <point x="256" y="134" type="line"/>
    </contour>
    <contour>
      <point x="228" y="159" type="line"/>
      <point x="221" y="159" type="line" smooth="yes"/>
      <point x="109" y="159"/>
      <point x="64" y="240"/>
      <point x="64" y="361" type="curve" smooth="yes"/>
      <point x="64" y="479"/>
      <point x="109" y="565"/>
      <point x="218" y="565" type="curve" smooth="yes"/>
      <point x="228" y="565" type="line"/>
    </contour>
    <contour>
      <point x="256" y="565" type="line"/>
      <point x="266" y="565" type="line" smooth="yes"/>
      <point x="377" y="565"/>
      <point x="420" y="479"/>
      <point x="420" y="367" type="curve" smooth="yes"/>
      <point x="420" y="240"/>
      <point x="372" y="159"/>
      <point x="267" y="159" type="curve" smooth="yes"/>
      <point x="256" y="159" type="line"/>
    </contour>
  </outline>
</glyph>
<glyph name="uni0554" format="2">
  <advance width="403"/>
  <unicode hex="0554"/>
  <note>
uni0554
</note>
  <outline>
    <contour>
      <point x="84" y="0" type="line"/>
      <point x="112" y="0" type="line"/>
      <point x="112" y="353" type="line"/>
      <point x="207" y="353" type="line" smooth="yes"/>
      <point x="297" y="353"/>
      <point x="361" y="414"/>
      <point x="361" y="538" type="curve" smooth="yes"/>
      <point x="361" y="656"/>
      <point x="312" y="724"/>
      <point x="220" y="724" type="curve" smooth="yes"/>
      <point x="134" y="724"/>
      <point x="84" y="651"/>
      <point x="84" y="499" type="curve" smooth="yes"/>
    </contour>
    <contour>
      <point x="208" y="378" type="curve" smooth="yes"/>
      <point x="112" y="378" type="line"/>
      <point x="112" y="499" type="line" smooth="yes"/>
      <point x="112" y="629"/>
      <point x="147" y="699"/>
      <point x="220" y="699" type="curve" smooth="yes"/>
      <point x="297" y="699"/>
      <point x="333" y="637"/>
      <point x="333" y="536" type="curve" smooth="yes"/>
      <point x="333" y="427"/>
      <point x="276" y="378"/>
    </contour>
    <contour>
      <point x="12" y="220" type="line"/>
      <point x="355" y="220" type="line"/>
      <point x="355" y="245" type="line"/>
      <point x="12" y="245" type="line"/>
    </contour>
  </outline>
</glyph>
<glyph name="uni0555" format="2">
  <advance width="530"/>
  <unicode hex="0555"/>
  <note>
uni0555
</note>
  <anchor x="265" y="714" name="top"/>
  <outline>
    <contour>
      <point x="264" y="-10" type="curve" smooth="yes"/>
      <point x="404" y="-10"/>
      <point x="485" y="125"/>
      <point x="485" y="358" type="curve" smooth="yes"/>
      <point x="485" y="610"/>
      <point x="414" y="725"/>
      <point x="265" y="725" type="curve" smooth="yes"/>
      <point x="118" y="725"/>
      <point x="44" y="596"/>
      <point x="44" y="359" type="curve" smooth="yes"/>
      <point x="44" y="137"/>
      <point x="116" y="-10"/>
    </contour>
    <contour>
      <point x="264" y="15" type="curve" smooth="yes"/>
      <point x="137" y="15"/>
      <point x="72" y="153"/>
      <point x="72" y="358" type="curve" smooth="yes"/>
      <point x="72" y="574"/>
      <point x="131" y="700"/>
      <point x="265" y="700" type="curve" smooth="yes"/>
      <point x="406" y="700"/>
      <point x="457" y="574"/>
      <point x="457" y="358" type="curve" smooth="yes"/>
      <point x="457" y="146"/>
      <point x="392" y="15"/>
    </contour>
  </outline>
</glyph>
<glyph name="uni0556" format="2">
  <advance width="451"/>
  <unicode hex="0556"/>
  <note>
uni0556
</note>
  <outline>
    <contour>
      <point x="222" y="-10" type="curve" smooth="yes"/>
      <point x="348" y="-10"/>
      <point x="415" y="72"/>
      <point x="415" y="189" type="curve" smooth="yes"/>
      <point x="415" y="318"/>
      <point x="365" y="385"/>
      <point x="226" y="402" type="curve" smooth="yes"/>
      <point x="109" y="416"/>
      <point x="80" y="471"/>
      <point x="80" y="564" type="curve" smooth="yes"/>
      <point x="80" y="642"/>
      <point x="118" y="699"/>
      <point x="211" y="699" type="curve"/>
      <point x="211" y="724" type="line"/>
      <point x="103" y="724"/>
      <point x="52" y="660"/>
      <point x="52" y="564" type="curve" smooth="yes"/>
      <point x="52" y="457"/>
      <point x="94" y="392"/>
      <point x="215" y="377" type="curve" smooth="yes"/>
      <point x="347" y="361"/>
      <point x="387" y="304"/>
      <point x="387" y="188" type="curve" smooth="yes"/>
      <point x="387" y="83"/>
      <point x="333" y="15"/>
      <point x="221" y="15" type="curve" smooth="yes"/>
      <point x="107" y="15"/>
      <point x="54" y="66"/>
      <point x="54" y="166" type="curve"/>
      <point x="38" y="166"/>
      <point x="28" y="155"/>
      <point x="28" y="141" type="curve" smooth="yes"/>
      <point x="28" y="57"/>
      <point x="86" y="-10"/>
    </contour>
    <contour>
      <point x="211" y="724" type="line"/>
      <point x="211" y="5" type="line"/>
      <point x="239" y="5" type="line"/>
      <point x="239" y="724" type="line"/>
    </contour>
  </outline>
</glyph>
<glyph name="uni0559" format="2">
  <advance width="149"/>
  <unicode hex="0559"/>
  <note>
uni0559
</note>
  <outline>
    <contour>
      <point x="107" y="549" type="curve"/>
      <point x="107" y="577" type="line"/>
      <point x="73" y="577"/>
      <point x="60" y="603"/>
      <point x="60" y="632" type="curve" smooth="yes"/>
      <point x="60" y="669"/>
      <point x="79" y="710"/>
      <point x="112" y="744" type="curve"/>
      <point x="101" y="760" type="line"/>
      <point x="63" y="726"/>
      <point x="37" y="678"/>
      <point x="37" y="632" type="curve" smooth="yes"/>
      <point x="37" y="582"/>
      <point x="60" y="549"/>
    </contour>
  </outline>
</glyph>
<glyph name="uni055A" format="2">
  <advance width="149"/>
  <unicode hex="055A"/>
  <note>
uni055A
</note>
  <outline>
    <contour>
      <point x="42" y="760" type="curve"/>
      <point x="42" y="732" type="line"/>
      <point x="77" y="732"/>
      <point x="89" y="706"/>
      <point x="89" y="677" type="curve" smooth="yes"/>
      <point x="89" y="640"/>
      <point x="70" y="599"/>
      <point x="37" y="565" type="curve"/>
      <point x="49" y="549" type="line"/>
      <point x="86" y="583"/>
      <point x="112" y="631"/>
      <point x="112" y="677" type="curve" smooth="yes"/>
      <point x="112" y="727"/>
      <point x="90" y="760"/>
    </contour>
  </outline>
</glyph>
<glyph name="uni055B" format="2">
  <advance width="177"/>
  <unicode hex="055B"/>
  <note>
uni055B
</note>
  <outline>
    <contour>
      <point x="55" y="603" type="line"/>
      <point x="74" y="603" type="line"/>
      <point x="98" y="679"/>
      <point x="116" y="745"/>
      <point x="129" y="806" type="curve"/>
      <point x="126" y="814" type="line"/>
      <point x="102" y="814" type="line"/>
      <point x="98" y="789"/>
      <point x="88" y="735"/>
      <point x="77" y="693" type="curve" smooth="yes"/>
      <point x="55" y="611" type="line"/>
    </contour>
  </outline>
</glyph>
<glyph name="uni055C" format="2">
  <advance width="195"/>
  <unicode hex="055C"/>
  <note>
uni055C
</note>
  <outline>
    <contour>
      <point x="73" y="603" type="curve"/>
      <point x="96" y="603" type="line"/>
      <point x="96" y="615" type="line" smooth="yes"/>
      <point x="96" y="654"/>
      <point x="107" y="672"/>
      <point x="135" y="694" type="curve" smooth="yes"/>
      <point x="178" y="728"/>
      <point x="184" y="740"/>
      <point x="184" y="814" type="curve"/>
      <point x="161" y="814" type="line"/>
      <point x="161" y="802" type="line" smooth="yes"/>
      <point x="161" y="748"/>
      <point x="154" y="738"/>
      <point x="122" y="712" type="curve" smooth="yes"/>
      <point x="79" y="678"/>
      <point x="73" y="661"/>
    </contour>
  </outline>
</glyph>
<glyph name="uni055D" format="2">
  <advance width="177"/>
  <unicode hex="055D"/>
  <note>
uni055D
</note>
  <outline>
    <contour>
      <point x="122" y="603" type="line"/>
      <point x="121" y="611" type="line"/>
      <point x="100" y="693" type="line" smooth="yes"/>
      <point x="89" y="735"/>
      <point x="79" y="789"/>
      <point x="75" y="814" type="curve"/>
      <point x="51" y="814" type="line"/>
      <point x="48" y="806" type="line"/>
      <point x="61" y="745"/>
      <point x="80" y="679"/>
      <point x="103" y="603" type="curve"/>
    </contour>
  </outline>
</glyph>
<glyph name="uni055E" format="2">
  <advance width="266"/>
  <unicode hex="055E"/>
  <note>
uni055E
</note>
  <outline>
    <contour>
      <point x="64" y="681" type="curve"/>
      <point x="89" y="681" type="line"/>
      <point x="89" y="764"/>
      <point x="122" y="799"/>
      <point x="173" y="799" type="curve" smooth="yes"/>
      <point x="201" y="799"/>
      <point x="216" y="784"/>
      <point x="216" y="752" type="curve" smooth="yes"/>
      <point x="216" y="723"/>
      <point x="206" y="713"/>
      <point x="179" y="713" type="curve" smooth="yes"/>
      <point x="168" y="713"/>
      <point x="161" y="715"/>
      <point x="154" y="718" type="curve"/>
      <point x="154" y="696"/>
      <point x="164" y="688"/>
      <point x="187" y="688" type="curve" smooth="yes"/>
      <point x="221" y="688"/>
      <point x="244" y="710"/>
      <point x="244" y="752" type="curve" smooth="yes"/>
      <point x="244" y="796"/>
      <point x="220" y="824"/>
      <point x="174" y="824" type="curve" smooth="yes"/>
      <point x="108" y="824"/>
      <point x="64" y="774"/>
    </contour>
  </outline>
</glyph>
<glyph name="uni055F" format="2">
  <advance width="298"/>
  <unicode hex="055F"/>
  <note>
uni055F
</note>
  <outline>
    <contour>
      <point x="133" y="612" type="curve" smooth="yes"/>
      <point x="262" y="612" type="line"/>
      <point x="262" y="637" type="line"/>
      <point x="137" y="637" type="line" smooth="yes"/>
      <point x="89" y="637"/>
      <point x="74" y="660"/>
      <point x="74" y="693" type="curve" smooth="yes"/>
      <point x="74" y="731"/>
      <point x="93" y="752"/>
      <point x="120" y="752" type="curve" smooth="yes"/>
      <point x="131" y="752"/>
      <point x="142" y="748"/>
      <point x="150" y="743" type="curve"/>
      <point x="150" y="764"/>
      <point x="139" y="777"/>
      <point x="115" y="777" type="curve" smooth="yes"/>
      <point x="78" y="777"/>
      <point x="47" y="745"/>
      <point x="47" y="693" type="curve" smooth="yes"/>
      <point x="47" y="643"/>
      <point x="76" y="612"/>
    </contour>
  </outline>
</glyph>
<glyph name="uni0560" format="2">
  <advance width="655"/>
  <unicode hex="0560"/>
  <note>
uni0561
</note>
  <anchor x="331" y="492" name="top"/>
  <outline>
    <contour>
      <point x="165" y="0" type="line"/>
      <point x="165" y="20" type="line"/>
      <point x="116" y="20"/>
      <point x="113" y="26"/>
      <point x="113" y="98" type="curve" smooth="yes"/>
      <point x="113" y="293" type="line" smooth="yes"/>
      <point x="113" y="390"/>
      <point x="146" y="477"/>
      <point x="229" y="477" type="curve" smooth="yes"/>
      <point x="291" y="477"/>
      <point x="317" y="432"/>
      <point x="317" y="324" type="curve" smooth="yes"/>
      <point x="317" y="0" type="line"/>
      <point x="397" y="0" type="line"/>
      <point x="397" y="20" type="line"/>
      <point x="348" y="20"/>
      <point x="345" y="26"/>
      <point x="345" y="96" type="curve" smooth="yes"/>
      <point x="345" y="308" type="line" smooth="yes"/>
      <point x="345" y="400"/>
      <point x="372" y="477"/>
      <point x="458" y="477" type="curve" smooth="yes"/>
      <point x="524" y="477"/>
      <point x="549" y="422"/>
      <point x="549" y="324" type="curve" smooth="yes"/>
      <point x="549" y="0" type="line"/>
      <point x="629" y="0" type="line"/>
      <point x="629" y="20" type="line"/>
      <point x="579" y="20"/>
      <point x="577" y="23"/>
      <point x="577" y="91" type="curve" smooth="yes"/>
      <point x="577" y="324" type="line" smooth="yes"/>
      <point x="577" y="444"/>
      <point x="537" y="502"/>
      <point x="460" y="502" type="curve" smooth="yes"/>
      <point x="405" y="502"/>
      <point x="360" y="472"/>
      <point x="339" y="406" type="curve"/>
      <point x="337" y="406" type="line"/>
      <point x="324" y="469"/>
      <point x="290" y="502"/>
      <point x="231" y="502" type="curve" smooth="yes"/>
      <point x="174" y="502"/>
      <point x="136" y="473"/>
      <point x="114" y="411" type="curve"/>
      <point x="112" y="411" type="line"/>
      <point x="109" y="492" type="line"/>
      <point x="33" y="492" type="line"/>
      <point x="33" y="472" type="line"/>
      <point x="80" y="472"/>
      <point x="85" y="465"/>
      <point x="85" y="392" type="curve" smooth="yes"/>
      <point x="85" y="0" type="line"/>
    </contour>
  </outline>
</glyph>
<glyph name="uni0562" format="2">
  <advance width="441"/>
  <unicode hex="0562"/>
  <note>
uni0562
</note>
  <outline>
    <contour>
      <point x="113" y="-136" type="curve" smooth="yes"/>
      <point x="113" y="289" type="line" smooth="yes"/>
      <point x="113" y="423"/>
      <point x="168" y="475"/>
      <point x="236" y="475" type="curve" smooth="yes"/>
      <point x="308" y="475"/>
      <point x="335" y="415"/>
      <point x="335" y="322" type="curve" smooth="yes"/>
      <point x="335" y="218" type="line"/>
      <point x="415" y="218" type="line"/>
      <point x="415" y="238" type="line"/>
      <point x="372" y="238"/>
      <point x="363" y="244"/>
      <point x="363" y="291" type="curve" smooth="yes"/>
      <point x="363" y="321" type="line" smooth="yes"/>
      <point x="363" y="444"/>
      <point x="325" y="500"/>
      <point x="234" y="500" type="curve" smooth="yes"/>
      <point x="171" y="500"/>
      <point x="139" y="464"/>
      <point x="114" y="415" type="curve"/>
      <point x="112" y="415" type="line"/>
      <point x="109" y="492" type="line"/>
      <point x="33" y="492" type="line"/>
      <point x="33" y="472" type="line"/>
      <point x="80" y="472"/>
      <point x="85" y="467"/>
      <point x="85" y="397" type="curve" smooth="yes"/>
      <point x="85" y="-232" type="line"/>
      <point x="165" y="-232" type="line"/>
      <point x="165" y="-212" type="line"/>
      <point x="121" y="-212"/>
      <point x="113" y="-209"/>
    </contour>
    <contour>
      <point x="92" y="0" type="line"/>
      <point x="366" y="0" type="line"/>
      <point x="366" y="25" type="line"/>
      <point x="92" y="25" type="line"/>
    </contour>
  </outline>
</glyph>
<glyph name="uni0563" format="2">
  <advance width="429"/>
  <unicode hex="0563"/>
  <note>
uni0563
</note>
  <outline>
    <contour>
      <point x="308" y="492" type="line"/>
      <point x="304" y="404" type="line"/>
      <point x="302" y="404" type="line"/>
      <point x="284" y="472"/>
      <point x="250" y="502"/>
      <point x="192" y="502" type="curve" smooth="yes"/>
      <point x="97" y="502"/>
      <point x="48" y="418"/>
      <point x="48" y="243" type="curve" smooth="yes"/>
      <point x="48" y="66"/>
      <point x="98" y="-10"/>
      <point x="184" y="-10" type="curve" smooth="yes"/>
      <point x="250" y="-10"/>
      <point x="284" y="24"/>
      <point x="303" y="90" type="curve"/>
      <point x="305" y="90" type="line"/>
      <point x="303" y="72"/>
      <point x="303" y="29"/>
      <point x="303" y="-31" type="curve" smooth="yes"/>
      <point x="303" y="-232" type="line"/>
      <point x="387" y="-232" type="line"/>
      <point x="387" y="-212" type="line"/>
      <point x="335" y="-212"/>
      <point x="331" y="-208"/>
      <point x="331" y="-134" type="curve" smooth="yes"/>
      <point x="331" y="492" type="line"/>
    </contour>
    <contour>
      <point x="188" y="15" type="curve" smooth="yes"/>
      <point x="111" y="15"/>
      <point x="76" y="85"/>
      <point x="76" y="242" type="curve" smooth="yes"/>
      <point x="76" y="398"/>
      <point x="112" y="477"/>
      <point x="196" y="477" type="curve" smooth="yes"/>
      <point x="269" y="477"/>
      <point x="303" y="382"/>
      <point x="303" y="243" type="curve" smooth="yes"/>
      <point x="303" y="52"/>
      <point x="246" y="15"/>
    </contour>
    <contour>
      <point x="321" y="0" type="line"/>
      <point x="423" y="0" type="line"/>
      <point x="423" y="25" type="line"/>
      <point x="321" y="25" type="line"/>
    </contour>
  </outline>
</glyph>
<glyph name="uni0564" format="2">
  <advance width="461"/>
  <unicode hex="0564"/>
  <note>
uni0564
</note>
  <outline>
    <contour>
      <point x="363" y="-136" type="curve" smooth="yes"/>
      <point x="363" y="321" type="line" smooth="yes"/>
      <point x="363" y="444"/>
      <point x="325" y="500"/>
      <point x="234" y="500" type="curve" smooth="yes"/>
      <point x="171" y="500"/>
      <point x="139" y="464"/>
      <point x="114" y="415" type="curve"/>
      <point x="112" y="415" type="line"/>
      <point x="109" y="492" type="line"/>
      <point x="33" y="492" type="line"/>
      <point x="33" y="472" type="line"/>
      <point x="80" y="472"/>
      <point x="85" y="467"/>
      <point x="85" y="397" type="curve" smooth="yes"/>
      <point x="85" y="0" type="line"/>
      <point x="165" y="0" type="line"/>
      <point x="165" y="20" type="line"/>
      <point x="121" y="20"/>
      <point x="113" y="23"/>
      <point x="113" y="96" type="curve" smooth="yes"/>
      <point x="113" y="289" type="line" smooth="yes"/>
      <point x="113" y="423"/>
      <point x="168" y="475"/>
      <point x="236" y="475" type="curve" smooth="yes"/>
      <point x="308" y="475"/>
      <point x="335" y="415"/>
      <point x="335" y="322" type="curve" smooth="yes"/>
      <point x="335" y="-232" type="line"/>
      <point x="415" y="-232" type="line"/>
      <point x="415" y="-212" type="line"/>
      <point x="372" y="-212"/>
      <point x="363" y="-206"/>
    </contour>
    <contour>
      <point x="353" y="0" type="line"/>
      <point x="455" y="0" type="line"/>
      <point x="455" y="25" type="line"/>
      <point x="353" y="25" type="line"/>
    </contour>
  </outline>
</glyph>
<glyph name="uni0565" format="2">
  <advance width="443"/>
  <unicode hex="0565"/>
  <note>
uni0565
</note>
  <outline>
    <contour>
      <point x="358" y="319" type="line"/>
      <point x="330" y="319" type="line"/>
      <point x="330" y="203" type="line" smooth="yes"/>
      <point x="330" y="104"/>
      <point x="292" y="15"/>
      <point x="208" y="15" type="curve" smooth="yes"/>
      <point x="138" y="15"/>
      <point x="106" y="70"/>
      <point x="106" y="183" type="curve" smooth="yes"/>
      <point x="106" y="760" type="line"/>
      <point x="26" y="760" type="line"/>
      <point x="26" y="740" type="line"/>
      <point x="70" y="740"/>
      <point x="78" y="735"/>
      <point x="78" y="667" type="curve" smooth="yes"/>
      <point x="78" y="184" type="line" smooth="yes"/>
      <point x="78" y="44"/>
      <point x="126" y="-10"/>
      <point x="206" y="-10" type="curve" smooth="yes"/>
      <point x="267" y="-10"/>
      <point x="304" y="26"/>
      <point x="328" y="77" type="curve"/>
      <point x="332" y="77" type="line"/>
      <point x="334" y="0" type="line"/>
      <point x="410" y="0" type="line"/>
      <point x="410" y="20" type="line"/>
      <point x="365" y="20"/>
      <point x="358" y="25"/>
      <point x="358" y="101" type="curve" smooth="yes"/>
    </contour>
    <contour>
      <point x="86" y="467" type="line"/>
      <point x="398" y="467" type="line"/>
      <point x="398" y="492" type="line"/>
      <point x="86" y="492" type="line"/>
    </contour>
  </outline>
</glyph>
<glyph name="uni0567" format="2">
  <advance width="326"/>
  <unicode hex="0567"/>
  <note>
uni0567
</note>
  <outline>
    <contour>
      <point x="290" y="467" type="line"/>
      <point x="290" y="492" type="line"/>
      <point x="106" y="492" type="line"/>
      <point x="106" y="760" type="line"/>
      <point x="26" y="760" type="line"/>
      <point x="26" y="740" type="line"/>
      <point x="70" y="740"/>
      <point x="78" y="735"/>
      <point x="78" y="667" type="curve" smooth="yes"/>
      <point x="78" y="13" type="line"/>
      <point x="90" y="0" type="line"/>
      <point x="99" y="0" type="line"/>
      <point x="124" y="21"/>
      <point x="171" y="28"/>
      <point x="197" y="28" type="curve" smooth="yes"/>
      <point x="240" y="28"/>
      <point x="262" y="10"/>
      <point x="262" y="-29" type="curve" smooth="yes"/>
      <point x="262" y="-81"/>
      <point x="212" y="-104"/>
      <point x="135" y="-104" type="curve"/>
      <point x="135" y="-118"/>
      <point x="145" y="-129"/>
      <point x="163" y="-129" type="curve" smooth="yes"/>
      <point x="237" y="-129"/>
      <point x="290" y="-92"/>
      <point x="290" y="-31" type="curve" smooth="yes"/>
      <point x="290" y="24"/>
      <point x="261" y="53"/>
      <point x="200" y="53" type="curve" smooth="yes"/>
      <point x="171" y="53"/>
      <point x="132" y="46"/>
      <point x="106" y="24" type="curve"/>
      <point x="106" y="467" type="line"/>
    </contour>
  </outline>
</glyph>
<glyph name="uni0568" format="2">
  <advance width="441"/>
  <unicode hex="0568"/>
  <note>
uni0568
</note>
  <outline>
    <contour>
      <point x="363" y="73" type="curve" smooth="yes"/>
      <point x="363" y="321" type="line" smooth="yes"/>
      <point x="363" y="444"/>
      <point x="325" y="500"/>
      <point x="234" y="500" type="curve" smooth="yes"/>
      <point x="171" y="500"/>
      <point x="139" y="464"/>
      <point x="114" y="415" type="curve"/>
      <point x="112" y="415" type="line"/>
      <point x="109" y="492" type="line"/>
      <point x="33" y="492" type="line"/>
      <point x="33" y="472" type="line"/>
      <point x="80" y="472"/>
      <point x="85" y="467"/>
      <point x="85" y="397" type="curve" smooth="yes"/>
      <point x="85" y="-232" type="line"/>
      <point x="113" y="-232" type="line"/>
      <point x="113" y="289" type="line" smooth="yes"/>
      <point x="113" y="423"/>
      <point x="168" y="475"/>
      <point x="236" y="475" type="curve" smooth="yes"/>
      <point x="308" y="475"/>
      <point x="335" y="415"/>
      <point x="335" y="322" type="curve" smooth="yes"/>
      <point x="335" y="0" type="line"/>
      <point x="415" y="0" type="line"/>
      <point x="415" y="20" type="line"/>
      <point x="372" y="20"/>
      <point x="363" y="26"/>
    </contour>
    <contour>
      <point x="92" y="-232" type="line"/>
      <point x="376" y="-232" type="line"/>
      <point x="376" y="-207" type="line"/>
      <point x="92" y="-207" type="line"/>
    </contour>
  </outline>
</glyph>
<glyph name="uni0569" format="2">
  <advance width="418"/>
  <unicode hex="0569"/>
  <note>
uni0569
</note>
  <outline>
    <contour>
      <point x="84" y="-232" type="line"/>
      <point x="168" y="-232" type="line"/>
      <point x="168" y="-212" type="line"/>
      <point x="116" y="-212"/>
      <point x="112" y="-208"/>
      <point x="112" y="-134" type="curve" smooth="yes"/>
      <point x="112" y="243" type="line" smooth="yes"/>
      <point x="112" y="387"/>
      <point x="151" y="477"/>
      <point x="227" y="477" type="curve" smooth="yes"/>
      <point x="308" y="477"/>
      <point x="339" y="398"/>
      <point x="339" y="242" type="curve"/>
      <point x="339" y="65"/>
      <point x="320" y="15"/>
      <point x="281" y="15" type="curve" smooth="yes"/>
      <point x="248" y="15"/>
      <point x="228" y="43"/>
      <point x="228" y="120" type="curve" smooth="yes"/>
      <point x="228" y="178"/>
      <point x="247" y="224"/>
      <point x="298" y="224" type="curve" smooth="yes"/>
      <point x="334" y="224"/>
      <point x="370" y="213"/>
      <point x="396" y="194" type="curve"/>
      <point x="406" y="215" type="line"/>
      <point x="371" y="239"/>
      <point x="338" y="249"/>
      <point x="295" y="249" type="curve" smooth="yes"/>
      <point x="238" y="249"/>
      <point x="200" y="207"/>
      <point x="200" y="120" type="curve" smooth="yes"/>
      <point x="200" y="32"/>
      <point x="231" y="-10"/>
      <point x="280" y="-10" type="curve" smooth="yes"/>
      <point x="338" y="-10"/>
      <point x="367" y="45"/>
      <point x="367" y="242" type="curve" smooth="yes"/>
      <point x="367" y="417"/>
      <point x="323" y="502"/>
      <point x="228" y="502" type="curve" smooth="yes"/>
      <point x="170" y="502"/>
      <point x="131" y="467"/>
      <point x="113" y="399" type="curve"/>
      <point x="111" y="399" type="line"/>
      <point x="107" y="492" type="line"/>
      <point x="32" y="492" type="line"/>
      <point x="32" y="472" type="line"/>
      <point x="84" y="472"/>
      <point x="84" y="468"/>
      <point x="84" y="394" type="curve" smooth="yes"/>
    </contour>
  </outline>
</glyph>
<glyph name="uni056A" format="2">
  <advance width="439"/>
  <unicode hex="056A"/>
  <note>
uni056A
</note>
  <outline>
    <contour>
      <point x="317" y="492" type="line"/>
      <point x="221" y="492" type="line" smooth="yes"/>
      <point x="121" y="492"/>
      <point x="48" y="425"/>
      <point x="48" y="253" type="curve" smooth="yes"/>
      <point x="48" y="77"/>
      <point x="107" y="-10"/>
      <point x="197" y="-10" type="curve" smooth="yes"/>
      <point x="307" y="-10"/>
      <point x="345" y="70"/>
      <point x="345" y="237" type="curve" smooth="yes"/>
      <point x="345" y="760" type="line"/>
      <point x="265" y="760" type="line"/>
      <point x="265" y="740" type="line"/>
      <point x="312" y="740"/>
      <point x="317" y="735"/>
      <point x="317" y="665" type="curve" smooth="yes"/>
    </contour>
    <contour>
      <point x="221" y="467" type="curve" smooth="yes"/>
      <point x="317" y="467" type="line"/>
      <point x="317" y="239" type="line" smooth="yes"/>
      <point x="317" y="103"/>
      <point x="294" y="15"/>
      <point x="197" y="15" type="curve" smooth="yes"/>
      <point x="120" y="15"/>
      <point x="76" y="105"/>
      <point x="76" y="255" type="curve" smooth="yes"/>
      <point x="76" y="409"/>
      <point x="138" y="467"/>
    </contour>
    <contour>
      <point x="335" y="492" type="line"/>
      <point x="335" y="467" type="line"/>
      <point x="433" y="467" type="line"/>
      <point x="433" y="492" type="line"/>
    </contour>
  </outline>
</glyph>
<glyph name="uni056B" format="2">
  <advance width="441"/>
  <unicode hex="056B"/>
  <note>
uni056B
</note>
  <outline>
    <contour>
      <point x="415" y="20" type="line"/>
      <point x="372" y="20"/>
      <point x="363" y="26"/>
      <point x="363" y="96" type="curve" smooth="yes"/>
      <point x="363" y="321" type="line" smooth="yes"/>
      <point x="363" y="444"/>
      <point x="325" y="500"/>
      <point x="234" y="500" type="curve" smooth="yes"/>
      <point x="171" y="500"/>
      <point x="139" y="466"/>
      <point x="114" y="417" type="curve"/>
      <point x="110" y="417" type="line"/>
      <point x="111" y="444"/>
      <point x="113" y="470"/>
      <point x="113" y="497" type="curve" smooth="yes"/>
      <point x="113" y="760" type="line"/>
      <point x="33" y="760" type="line"/>
      <point x="33" y="740" type="line"/>
      <point x="80" y="740"/>
      <point x="85" y="735"/>
      <point x="85" y="665" type="curve" smooth="yes"/>
      <point x="85" y="-232" type="line"/>
      <point x="165" y="-232" type="line"/>
      <point x="165" y="-212" type="line"/>
      <point x="121" y="-212"/>
      <point x="113" y="-209"/>
      <point x="113" y="-136" type="curve" smooth="yes"/>
      <point x="113" y="291" type="line" smooth="yes"/>
      <point x="113" y="425"/>
      <point x="168" y="475"/>
      <point x="236" y="475" type="curve" smooth="yes"/>
      <point x="308" y="475"/>
      <point x="335" y="415"/>
      <point x="335" y="322" type="curve" smooth="yes"/>
      <point x="335" y="0" type="line"/>
      <point x="415" y="0" type="line"/>
    </contour>
  </outline>
</glyph>
<glyph name="uni056C" format="2">
  <advance width="181"/>
  <unicode hex="056C"/>
  <note>
uni056C
</note>
  <outline>
    <contour>
      <point x="196" y="-132" type="line"/>
      <point x="176" y="-132" type="line"/>
      <point x="176" y="-204"/>
      <point x="172" y="-207"/>
      <point x="134" y="-207" type="curve" smooth="yes"/>
      <point x="113" y="-207" type="line"/>
      <point x="113" y="492" type="line"/>
      <point x="35" y="492" type="line"/>
      <point x="35" y="472" type="line"/>
      <point x="43" y="472" type="line" smooth="yes"/>
      <point x="81" y="472"/>
      <point x="85" y="467"/>
      <point x="85" y="428" type="curve" smooth="yes"/>
      <point x="85" y="-232" type="line"/>
      <point x="196" y="-232" type="line"/>
    </contour>
  </outline>
</glyph>
<glyph name="uni056D" format="2">
  <advance width="700"/>
  <unicode hex="056D"/>
  <note>
uni056D
</note>
  <outline>
    <contour>
      <point x="615" y="101" type="curve" smooth="yes"/>
      <point x="615" y="492" type="line"/>
      <point x="535" y="492" type="line"/>
      <point x="535" y="472" type="line"/>
      <point x="576" y="472"/>
      <point x="587" y="468"/>
      <point x="587" y="382" type="curve" smooth="yes"/>
      <point x="587" y="203" type="line" smooth="yes"/>
      <point x="587" y="104"/>
      <point x="549" y="15"/>
      <point x="465" y="15" type="curve" smooth="yes"/>
      <point x="395" y="15"/>
      <point x="363" y="70"/>
      <point x="363" y="183" type="curve" smooth="yes"/>
      <point x="363" y="321" type="line" smooth="yes"/>
      <point x="363" y="444"/>
      <point x="325" y="500"/>
      <point x="234" y="500" type="curve" smooth="yes"/>
      <point x="171" y="500"/>
      <point x="139" y="466"/>
      <point x="114" y="417" type="curve"/>
      <point x="110" y="417" type="line"/>
      <point x="111" y="444"/>
      <point x="113" y="470"/>
      <point x="113" y="497" type="curve" smooth="yes"/>
      <point x="113" y="760" type="line"/>
      <point x="33" y="760" type="line"/>
      <point x="33" y="740" type="line"/>
      <point x="80" y="740"/>
      <point x="85" y="735"/>
      <point x="85" y="665" type="curve" smooth="yes"/>
      <point x="85" y="-232" type="line"/>
      <point x="165" y="-232" type="line"/>
      <point x="165" y="-212" type="line"/>
      <point x="121" y="-212"/>
      <point x="113" y="-209"/>
      <point x="113" y="-136" type="curve" smooth="yes"/>
      <point x="113" y="291" type="line" smooth="yes"/>
      <point x="113" y="425"/>
      <point x="168" y="475"/>
      <point x="236" y="475" type="curve" smooth="yes"/>
      <point x="308" y="475"/>
      <point x="335" y="415"/>
      <point x="335" y="322" type="curve" smooth="yes"/>
      <point x="335" y="184" type="line" smooth="yes"/>
      <point x="335" y="44"/>
      <point x="383" y="-10"/>
      <point x="463" y="-10" type="curve" smooth="yes"/>
      <point x="524" y="-10"/>
      <point x="561" y="26"/>
      <point x="585" y="77" type="curve"/>
      <point x="589" y="77" type="line"/>
      <point x="591" y="0" type="line"/>
      <point x="667" y="0" type="line"/>
      <point x="667" y="20" type="line"/>
      <point x="622" y="20"/>
      <point x="615" y="25"/>
    </contour>
  </outline>
</glyph>
<glyph name="uni056E" format="2">
  <advance width="395"/>
  <unicode hex="056E"/>
  <note>
uni056E
</note>
  <outline>
    <contour>
      <point x="190" y="-10" type="curve" smooth="yes"/>
      <point x="302" y="-10"/>
      <point x="345" y="75"/>
      <point x="345" y="237" type="curve" smooth="yes"/>
      <point x="345" y="314"/>
      <point x="326" y="390"/>
      <point x="278" y="467" type="curve"/>
      <point x="383" y="467" type="line"/>
      <point x="383" y="492" type="line"/>
      <point x="227" y="492" type="line" smooth="yes"/>
      <point x="131" y="492"/>
      <point x="48" y="425"/>
      <point x="48" y="241" type="curve" smooth="yes"/>
      <point x="48" y="77"/>
      <point x="102" y="-10"/>
    </contour>
    <contour>
      <point x="189" y="15" type="curve" smooth="yes"/>
      <point x="115" y="15"/>
      <point x="76" y="105"/>
      <point x="76" y="241" type="curve" smooth="yes"/>
      <point x="76" y="409"/>
      <point x="148" y="467"/>
      <point x="225" y="467" type="curve" smooth="yes"/>
      <point x="247" y="467" type="line"/>
      <point x="297" y="391"/>
      <point x="317" y="315"/>
      <point x="317" y="239" type="curve" smooth="yes"/>
      <point x="317" y="103"/>
      <point x="289" y="15"/>
    </contour>
    <contour>
      <point x="241" y="479" type="curve"/>
      <point x="271" y="479" type="line"/>
      <point x="243" y="518"/>
      <point x="226" y="542"/>
      <point x="200" y="585" type="curve" smooth="yes"/>
      <point x="164" y="644"/>
      <point x="160" y="673"/>
      <point x="160" y="700" type="curve" smooth="yes"/>
      <point x="160" y="726"/>
      <point x="166" y="746"/>
      <point x="204" y="746" type="curve"/>
      <point x="203" y="765"/>
      <point x="195" y="771"/>
      <point x="182" y="771" type="curve" smooth="yes"/>
      <point x="153" y="771"/>
      <point x="132" y="743"/>
      <point x="132" y="698" type="curve" smooth="yes"/>
      <point x="132" y="673"/>
      <point x="138" y="638"/>
      <point x="178" y="571" type="curve" smooth="yes"/>
      <point x="193" y="547"/>
      <point x="215" y="516"/>
    </contour>
  </outline>
</glyph>
<glyph name="uni056F" format="2">
  <advance width="443"/>
  <unicode hex="056F"/>
  <note>
uni056F
</note>
  <outline>
    <contour>
      <point x="330" y="-232" type="line"/>
      <point x="410" y="-232" type="line"/>
      <point x="410" y="-212" type="line"/>
      <point x="365" y="-212"/>
      <point x="358" y="-207"/>
      <point x="358" y="-131" type="curve" smooth="yes"/>
      <point x="358" y="492" type="line"/>
      <point x="278" y="492" type="line"/>
      <point x="278" y="472" type="line"/>
      <point x="319" y="472"/>
      <point x="330" y="468"/>
      <point x="330" y="382" type="curve" smooth="yes"/>
      <point x="330" y="203" type="line" smooth="yes"/>
      <point x="330" y="104"/>
      <point x="292" y="15"/>
      <point x="208" y="15" type="curve" smooth="yes"/>
      <point x="138" y="15"/>
      <point x="106" y="70"/>
      <point x="106" y="183" type="curve" smooth="yes"/>
      <point x="106" y="760" type="line"/>
      <point x="26" y="760" type="line"/>
      <point x="26" y="740" type="line"/>
      <point x="70" y="740"/>
      <point x="78" y="735"/>
      <point x="78" y="667" type="curve" smooth="yes"/>
      <point x="78" y="184" type="line" smooth="yes"/>
      <point x="78" y="44"/>
      <point x="126" y="-10"/>
      <point x="206" y="-10" type="curve" smooth="yes"/>
      <point x="267" y="-10"/>
      <point x="304" y="26"/>
      <point x="328" y="77" type="curve"/>
      <point x="332" y="77" type="line"/>
      <point x="331" y="55"/>
      <point x="330" y="26"/>
      <point x="330" y="4" type="curve" smooth="yes"/>
    </contour>
  </outline>
</glyph>
<glyph name="uni0570" format="2">
  <advance width="394"/>
  <unicode hex="0570"/>
  <note>
uni0570
</note>
  <outline>
    <contour>
      <point x="68" y="174" type="line"/>
      <point x="70" y="283"/>
      <point x="123" y="337"/>
      <point x="191" y="337" type="curve" smooth="yes"/>
      <point x="263" y="337"/>
      <point x="290" y="277"/>
      <point x="290" y="184" type="curve" smooth="yes"/>
      <point x="290" y="0" type="line"/>
      <point x="370" y="0" type="line"/>
      <point x="370" y="20" type="line"/>
      <point x="327" y="20"/>
      <point x="318" y="26"/>
      <point x="318" y="96" type="curve" smooth="yes"/>
      <point x="318" y="183" type="line" smooth="yes"/>
      <point x="318" y="306"/>
      <point x="280" y="362"/>
      <point x="189" y="362" type="curve" smooth="yes"/>
      <point x="133" y="362"/>
      <point x="97" y="333"/>
      <point x="72" y="284" type="curve"/>
      <point x="69" y="284" type="line"/>
      <point x="86" y="611"/>
      <point x="158" y="744"/>
      <point x="253" y="744" type="curve" smooth="yes"/>
      <point x="304" y="744"/>
      <point x="328" y="717"/>
      <point x="329" y="645" type="curve"/>
      <point x="343" y="645"/>
      <point x="355" y="651"/>
      <point x="355" y="671" type="curve" smooth="yes"/>
      <point x="355" y="727"/>
      <point x="323" y="769"/>
      <point x="255" y="769" type="curve" smooth="yes"/>
      <point x="160" y="769"/>
      <point x="42" y="665"/>
      <point x="42" y="180" type="curve"/>
    </contour>
  </outline>
</glyph>
<glyph name="uni0571" format="2">
  <advance width="401"/>
  <unicode hex="0571"/>
  <note>
uni0571
</note>
  <outline>
    <contour>
      <point x="172" y="-10" type="curve" smooth="yes"/>
      <point x="243" y="-10"/>
      <point x="286" y="36"/>
      <point x="321" y="109" type="curve"/>
      <point x="305" y="125" type="line"/>
      <point x="273" y="57"/>
      <point x="238" y="15"/>
      <point x="174" y="15" type="curve" smooth="yes"/>
      <point x="113" y="15"/>
      <point x="64" y="55"/>
      <point x="64" y="164" type="curve" smooth="yes"/>
      <point x="64" y="262"/>
      <point x="90" y="327"/>
      <point x="205" y="440" type="curve" smooth="yes"/>
      <point x="333" y="566"/>
      <point x="339" y="580"/>
      <point x="339" y="602" type="curve" smooth="yes"/>
      <point x="339" y="639"/>
      <point x="326" y="657"/>
      <point x="194" y="685" type="curve" smooth="yes"/>
      <point x="88" y="708"/>
      <point x="77" y="716"/>
      <point x="77" y="770" type="curve"/>
      <point x="60" y="770"/>
      <point x="49" y="760"/>
      <point x="49" y="745" type="curve" smooth="yes"/>
      <point x="49" y="710"/>
      <point x="63" y="686"/>
      <point x="190" y="659" type="curve" smooth="yes"/>
      <point x="303" y="635"/>
      <point x="311" y="618"/>
      <point x="311" y="602" type="curve" smooth="yes"/>
      <point x="311" y="590"/>
      <point x="306" y="576"/>
      <point x="193" y="464" type="curve" smooth="yes"/>
      <point x="61" y="334"/>
      <point x="36" y="270"/>
      <point x="36" y="160" type="curve" smooth="yes"/>
      <point x="36" y="37"/>
      <point x="95" y="-10"/>
    </contour>
    <contour>
      <point x="224" y="476" type="line"/>
      <point x="202" y="459" type="line"/>
      <point x="309" y="86" type="line"/>
      <point x="311" y="86" type="line"/>
      <point x="336" y="0" type="line"/>
      <point x="393" y="0" type="line"/>
      <point x="393" y="20" type="line"/>
      <point x="357" y="20"/>
      <point x="353" y="21"/>
      <point x="339" y="70" type="curve" smooth="yes"/>
    </contour>
  </outline>
</glyph>
<glyph name="uni0572" format="2">
  <advance width="455"/>
  <unicode hex="0572"/>
  <note>
uni0572
</note>
  <outline>
    <contour>
      <point x="234" y="500" type="curve" smooth="yes"/>
      <point x="171" y="500"/>
      <point x="139" y="464"/>
      <point x="114" y="415" type="curve"/>
      <point x="112" y="415" type="line"/>
      <point x="109" y="492" type="line"/>
      <point x="33" y="492" type="line"/>
      <point x="33" y="472" type="line"/>
      <point x="80" y="472"/>
      <point x="85" y="467"/>
      <point x="85" y="397" type="curve" smooth="yes"/>
      <point x="85" y="0" type="line"/>
      <point x="165" y="0" type="line"/>
      <point x="165" y="20" type="line"/>
      <point x="121" y="20"/>
      <point x="113" y="23"/>
      <point x="113" y="96" type="curve" smooth="yes"/>
      <point x="113" y="289" type="line" smooth="yes"/>
      <point x="113" y="423"/>
      <point x="168" y="475"/>
      <point x="236" y="475" type="curve" smooth="yes"/>
      <point x="308" y="475"/>
      <point x="335" y="415"/>
      <point x="335" y="322" type="curve" smooth="yes"/>
      <point x="335" y="-232" type="line"/>
      <point x="363" y="-232" type="line"/>
      <point x="363" y="321" type="line" smooth="yes"/>
      <point x="363" y="447"/>
      <point x="325" y="500"/>
    </contour>
    <contour>
      <point x="355" y="-232" type="line"/>
      <point x="470" y="-232" type="line"/>
      <point x="470" y="-204" type="line"/>
      <point x="355" y="-204" type="line"/>
    </contour>
  </outline>
</glyph>
<glyph name="uni0573" format="2">
  <advance width="417"/>
  <unicode hex="0573"/>
  <note>
uni0573
</note>
  <outline>
    <contour>
      <point x="184" y="-10" type="curve" smooth="yes"/>
      <point x="245" y="-10"/>
      <point x="287" y="26"/>
      <point x="311" y="77" type="curve"/>
      <point x="315" y="77" type="line"/>
      <point x="317" y="0" type="line"/>
      <point x="393" y="0" type="line"/>
      <point x="393" y="20" type="line"/>
      <point x="348" y="20"/>
      <point x="341" y="25"/>
      <point x="341" y="101" type="curve" smooth="yes"/>
      <point x="341" y="235" type="line" smooth="yes"/>
      <point x="341" y="429"/>
      <point x="245" y="502"/>
      <point x="18" y="502" type="curve"/>
      <point x="18" y="477" type="line"/>
      <point x="237" y="477"/>
      <point x="313" y="410"/>
      <point x="313" y="226" type="curve" smooth="yes"/>
      <point x="313" y="84"/>
      <point x="270" y="15"/>
      <point x="186" y="15" type="curve" smooth="yes"/>
      <point x="116" y="15"/>
      <point x="79" y="70"/>
      <point x="79" y="183" type="curve" smooth="yes"/>
      <point x="79" y="551"/>
      <point x="204" y="744"/>
      <point x="291" y="744" type="curve" smooth="yes"/>
      <point x="342" y="744"/>
      <point x="366" y="717"/>
      <point x="367" y="645" type="curve"/>
      <point x="381" y="645"/>
      <point x="393" y="651"/>
      <point x="393" y="671" type="curve" smooth="yes"/>
      <point x="393" y="727"/>
      <point x="361" y="769"/>
      <point x="293" y="769" type="curve" smooth="yes"/>
      <point x="187" y="769"/>
      <point x="51" y="573"/>
      <point x="51" y="184" type="curve" smooth="yes"/>
      <point x="51" y="44"/>
      <point x="104" y="-10"/>
    </contour>
  </outline>
</glyph>
<glyph name="uni0574" format="2">
  <advance width="443"/>
  <unicode hex="0574"/>
  <note>
uni0574
</note>
  <outline>
    <contour>
      <point x="358" y="101" type="curve" smooth="yes"/>
      <point x="358" y="471" type="line" smooth="yes"/>
      <point x="358" y="508"/>
      <point x="349" y="547"/>
      <point x="322" y="585" type="curve" smooth="yes"/>
      <point x="300" y="616"/>
      <point x="292" y="653"/>
      <point x="292" y="679" type="curve" smooth="yes"/>
      <point x="292" y="717"/>
      <point x="303" y="741"/>
      <point x="343" y="741" type="curve" smooth="yes"/>
      <point x="383" y="741"/>
      <point x="394" y="717"/>
      <point x="394" y="646" type="curve"/>
      <point x="408" y="646"/>
      <point x="419" y="660"/>
      <point x="419" y="676" type="curve" smooth="yes"/>
      <point x="419" y="730"/>
      <point x="396" y="766"/>
      <point x="343" y="766" type="curve" smooth="yes"/>
      <point x="297" y="766"/>
      <point x="265" y="738"/>
      <point x="265" y="678" type="curve" smooth="yes"/>
      <point x="265" y="646"/>
      <point x="275" y="606"/>
      <point x="298" y="574" type="curve" smooth="yes"/>
      <point x="321" y="542"/>
      <point x="330" y="503"/>
      <point x="330" y="472" type="curve" smooth="yes"/>
      <point x="330" y="203" type="line" smooth="yes"/>
      <point x="330" y="104"/>
      <point x="292" y="15"/>
      <point x="208" y="15" type="curve" smooth="yes"/>
      <point x="138" y="15"/>
      <point x="106" y="70"/>
      <point x="106" y="183" type="curve" smooth="yes"/>
      <point x="106" y="492" type="line"/>
      <point x="26" y="492" type="line"/>
      <point x="26" y="472" type="line"/>
      <point x="70" y="472"/>
      <point x="78" y="467"/>
      <point x="78" y="399" type="curve" smooth="yes"/>
      <point x="78" y="184" type="line" smooth="yes"/>
      <point x="78" y="44"/>
      <point x="126" y="-10"/>
      <point x="206" y="-10" type="curve" smooth="yes"/>
      <point x="267" y="-10"/>
      <point x="304" y="26"/>
      <point x="328" y="77" type="curve"/>
      <point x="332" y="77" type="line"/>
      <point x="334" y="0" type="line"/>
      <point x="410" y="0" type="line"/>
      <point x="410" y="20" type="line"/>
      <point x="365" y="20"/>
      <point x="358" y="25"/>
    </contour>
  </outline>
</glyph>
<glyph name="uni0575" format="2">
  <advance width="186"/>
  <unicode hex="0575"/>
  <note>
uni0575
</note>
  <outline>
    <contour>
      <point x="78" y="126" type="line" smooth="yes"/>
      <point x="78" y="10"/>
      <point x="110" y="-34"/>
      <point x="110" y="-131" type="curve" smooth="yes"/>
      <point x="110" y="-191"/>
      <point x="84" y="-207"/>
      <point x="41" y="-207" type="curve" smooth="yes"/>
      <point x="35" y="-207" type="line"/>
      <point x="35" y="-232" type="line"/>
      <point x="43" y="-232" type="line" smooth="yes"/>
      <point x="105" y="-232"/>
      <point x="138" y="-199"/>
      <point x="138" y="-130" type="curve" smooth="yes"/>
      <point x="138" y="-24"/>
      <point x="106" y="18"/>
      <point x="106" y="125" type="curve" smooth="yes"/>
      <point x="106" y="492" type="line"/>
      <point x="26" y="492" type="line"/>
      <point x="26" y="472" type="line"/>
      <point x="35" y="472" type="line" smooth="yes"/>
      <point x="71" y="472"/>
      <point x="78" y="462"/>
      <point x="78" y="399" type="curve" smooth="yes"/>
    </contour>
  </outline>
</glyph>
<glyph name="uni0576" format="2">
  <advance width="421"/>
  <unicode hex="0576"/>
  <note>
uni0576
</note>
  <outline>
    <contour>
      <point x="179" y="-10" type="curve" smooth="yes"/>
      <point x="240" y="-10"/>
      <point x="282" y="26"/>
      <point x="306" y="77" type="curve"/>
      <point x="310" y="77" type="line"/>
      <point x="312" y="0" type="line"/>
      <point x="388" y="0" type="line"/>
      <point x="388" y="20" type="line"/>
      <point x="343" y="20"/>
      <point x="336" y="25"/>
      <point x="336" y="101" type="curve" smooth="yes"/>
      <point x="336" y="492" type="line"/>
      <point x="256" y="492" type="line"/>
      <point x="256" y="472" type="line"/>
      <point x="297" y="472"/>
      <point x="308" y="468"/>
      <point x="308" y="382" type="curve" smooth="yes"/>
      <point x="308" y="203" type="line" smooth="yes"/>
      <point x="308" y="104"/>
      <point x="265" y="15"/>
      <point x="181" y="15" type="curve" smooth="yes"/>
      <point x="106" y="15"/>
      <point x="74" y="70"/>
      <point x="74" y="183" type="curve" smooth="yes"/>
      <point x="74" y="298"/>
      <point x="109" y="455"/>
      <point x="165" y="572" type="curve"/>
      <point x="140" y="582" type="line"/>
      <point x="84" y="465"/>
      <point x="46" y="299"/>
      <point x="46" y="184" type="curve" smooth="yes"/>
      <point x="46" y="44"/>
      <point x="94" y="-10"/>
    </contour>
    <contour>
      <point x="165" y="587" type="line"/>
      <point x="120" y="597"/>
      <point x="94" y="619"/>
      <point x="94" y="672" type="curve" smooth="yes"/>
      <point x="94" y="722"/>
      <point x="114" y="750"/>
      <point x="185" y="750" type="curve"/>
      <point x="183" y="767"/>
      <point x="175" y="775"/>
      <point x="154" y="775" type="curve" smooth="yes"/>
      <point x="103" y="775"/>
      <point x="66" y="737"/>
      <point x="66" y="672" type="curve" smooth="yes"/>
      <point x="66" y="612"/>
      <point x="98" y="578"/>
      <point x="142" y="566" type="curve"/>
      <point x="165" y="572" type="line"/>
    </contour>
  </outline>
</glyph>
<glyph name="uni0577" format="2">
  <advance width="352"/>
  <unicode hex="0577"/>
  <note>
uni0577
</note>
  <outline>
    <contour>
      <point x="153" y="502" type="curve" smooth="yes"/>
      <point x="59" y="502"/>
      <point x="20" y="429"/>
      <point x="20" y="382" type="curve" smooth="yes"/>
      <point x="20" y="354"/>
      <point x="32" y="343"/>
      <point x="45" y="343" type="curve"/>
      <point x="45" y="421"/>
      <point x="73" y="477"/>
      <point x="153" y="477" type="curve" smooth="yes"/>
      <point x="234" y="477"/>
      <point x="264" y="409"/>
      <point x="264" y="338" type="curve" smooth="yes"/>
      <point x="264" y="261"/>
      <point x="246" y="161"/>
      <point x="132" y="-12" type="curve" smooth="yes"/>
      <point x="59" y="-123"/>
      <point x="35" y="-168"/>
      <point x="35" y="-190" type="curve" smooth="yes"/>
      <point x="35" y="-227"/>
      <point x="66" y="-232"/>
      <point x="83" y="-232" type="curve" smooth="yes"/>
      <point x="306" y="-232" type="line"/>
      <point x="306" y="-207" type="line"/>
      <point x="85" y="-207" type="line" smooth="yes"/>
      <point x="69" y="-207"/>
      <point x="63" y="-197"/>
      <point x="63" y="-187" type="curve" smooth="yes"/>
      <point x="64" y="-165"/>
      <point x="80" y="-138"/>
      <point x="155" y="-23" type="curve" smooth="yes"/>
      <point x="266" y="147"/>
      <point x="292" y="254"/>
      <point x="292" y="338" type="curve" smooth="yes"/>
      <point x="292" y="431"/>
      <point x="247" y="502"/>
    </contour>
  </outline>
</glyph>
<glyph name="uni0579" format="2">
  <advance width="293"/>
  <unicode hex="0579"/>
  <note>
uni0579
</note>
  <outline>
    <contour>
      <point x="232" y="289" type="line"/>
      <point x="204" y="289" type="line"/>
      <point x="43" y="-80" type="line" smooth="yes"/>
      <point x="22" y="-128"/>
      <point x="4" y="-170"/>
      <point x="4" y="-190" type="curve" smooth="yes"/>
      <point x="4" y="-227"/>
      <point x="35" y="-232"/>
      <point x="52" y="-232" type="curve" smooth="yes"/>
      <point x="275" y="-232" type="line"/>
      <point x="275" y="-207" type="line"/>
      <point x="54" y="-207" type="line" smooth="yes"/>
      <point x="38" y="-207"/>
      <point x="32" y="-197"/>
      <point x="32" y="-187" type="curve" smooth="yes"/>
      <point x="33" y="-165"/>
      <point x="43" y="-142"/>
      <point x="65" y="-91" type="curve" smooth="yes"/>
    </contour>
    <contour>
      <point x="88" y="492" type="curve"/>
      <point x="65" y="492" type="line"/>
      <point x="47" y="467"/>
      <point x="37" y="431"/>
      <point x="37" y="410" type="curve" smooth="yes"/>
      <point x="37" y="377"/>
      <point x="50" y="352"/>
      <point x="75" y="339" type="curve" smooth="yes"/>
      <point x="214" y="267" type="line"/>
      <point x="232" y="289" type="line"/>
      <point x="90" y="362" type="line" smooth="yes"/>
      <point x="70" y="372"/>
      <point x="63" y="387"/>
      <point x="63" y="412" type="curve" smooth="yes"/>
      <point x="63" y="434"/>
      <point x="69" y="458"/>
    </contour>
  </outline>
</glyph>
<glyph name="uni057A" format="2">
  <advance width="655"/>
  <unicode hex="057A"/>
  <note>
uni057A
</note>
  <outline>
    <contour>
      <point x="490" y="492" type="line"/>
      <point x="490" y="472" type="line"/>
      <point x="539" y="472"/>
      <point x="542" y="466"/>
      <point x="542" y="394" type="curve" smooth="yes"/>
      <point x="542" y="199" type="line" smooth="yes"/>
      <point x="542" y="102"/>
      <point x="509" y="15"/>
      <point x="426" y="15" type="curve" smooth="yes"/>
      <point x="364" y="15"/>
      <point x="338" y="60"/>
      <point x="338" y="168" type="curve" smooth="yes"/>
      <point x="338" y="492" type="line"/>
      <point x="258" y="492" type="line"/>
      <point x="258" y="472" type="line"/>
      <point x="307" y="472"/>
      <point x="310" y="466"/>
      <point x="310" y="396" type="curve" smooth="yes"/>
      <point x="310" y="184" type="line" smooth="yes"/>
      <point x="310" y="92"/>
      <point x="283" y="15"/>
      <point x="197" y="15" type="curve" smooth="yes"/>
      <point x="131" y="15"/>
      <point x="106" y="70"/>
      <point x="106" y="168" type="curve" smooth="yes"/>
      <point x="106" y="492" type="line"/>
      <point x="26" y="492" type="line"/>
      <point x="26" y="472" type="line"/>
      <point x="76" y="472"/>
      <point x="78" y="469"/>
      <point x="78" y="401" type="curve" smooth="yes"/>
      <point x="78" y="168" type="line" smooth="yes"/>
      <point x="78" y="48"/>
      <point x="118" y="-10"/>
      <point x="195" y="-10" type="curve" smooth="yes"/>
      <point x="250" y="-10"/>
      <point x="295" y="20"/>
      <point x="316" y="86" type="curve"/>
      <point x="318" y="86" type="line"/>
      <point x="331" y="23"/>
      <point x="365" y="-10"/>
      <point x="424" y="-10" type="curve" smooth="yes"/>
      <point x="481" y="-10"/>
      <point x="519" y="19"/>
      <point x="541" y="81" type="curve"/>
      <point x="543" y="81" type="line"/>
      <point x="542" y="54"/>
      <point x="542" y="27"/>
      <point x="542" y="0" type="curve" smooth="yes"/>
      <point x="542" y="-232" type="line"/>
      <point x="622" y="-232" type="line"/>
      <point x="622" y="-212" type="line"/>
      <point x="575" y="-212"/>
      <point x="570" y="-205"/>
      <point x="570" y="-132" type="curve" smooth="yes"/>
      <point x="570" y="492" type="line"/>
    </contour>
  </outline>
</glyph>
<glyph name="uni057B" format="2">
  <advance width="372"/>
  <unicode hex="057B"/>
  <note>
uni057B
</note>
  <outline>
    <contour>
      <point x="102" y="-232" type="curve" smooth="yes"/>
      <point x="325" y="-232" type="line"/>
      <point x="325" y="-207" type="line"/>
      <point x="104" y="-207" type="line" smooth="yes"/>
      <point x="88" y="-207"/>
      <point x="82" y="-197"/>
      <point x="82" y="-187" type="curve" smooth="yes"/>
      <point x="83" y="-165"/>
      <point x="99" y="-138"/>
      <point x="174" y="-23" type="curve" smooth="yes"/>
      <point x="285" y="147"/>
      <point x="326" y="234"/>
      <point x="326" y="338" type="curve" smooth="yes"/>
      <point x="326" y="431"/>
      <point x="281" y="502"/>
      <point x="187" y="502" type="curve" smooth="yes"/>
      <point x="93" y="502"/>
      <point x="48" y="431"/>
      <point x="48" y="338" type="curve" smooth="yes"/>
      <point x="48" y="265"/>
      <point x="75" y="223"/>
      <point x="103" y="185" type="curve" smooth="yes"/>
      <point x="153" y="117"/>
      <point x="167" y="81"/>
      <point x="167" y="39" type="curve" smooth="yes"/>
      <point x="167" y="18"/>
      <point x="162" y="4"/>
      <point x="143" y="-24" type="curve"/>
      <point x="164" y="-24" type="line"/>
      <point x="184" y="2"/>
      <point x="191" y="23"/>
      <point x="191" y="39" type="curve" smooth="yes"/>
      <point x="191" y="88"/>
      <point x="175" y="127"/>
      <point x="122" y="202" type="curve" smooth="yes"/>
      <point x="98" y="236"/>
      <point x="76" y="275"/>
      <point x="76" y="338" type="curve" smooth="yes"/>
      <point x="76" y="409"/>
      <point x="106" y="477"/>
      <point x="187" y="477" type="curve" smooth="yes"/>
      <point x="268" y="477"/>
      <point x="298" y="409"/>
      <point x="298" y="338" type="curve" smooth="yes"/>
      <point x="298" y="241"/>
      <point x="265" y="161"/>
      <point x="151" y="-12" type="curve" smooth="yes"/>
      <point x="78" y="-123"/>
      <point x="54" y="-168"/>
      <point x="54" y="-190" type="curve" smooth="yes"/>
      <point x="54" y="-227"/>
      <point x="85" y="-232"/>
    </contour>
  </outline>
</glyph>
<glyph name="uni057C" format="2">
  <advance width="441"/>
  <unicode hex="057C"/>
  <note>
uni057C
</note>
  <outline>
    <contour>
      <point x="286" y="0" type="line"/>
      <point x="435" y="0" type="line"/>
      <point x="435" y="25" type="line"/>
      <point x="286" y="25" type="line"/>
    </contour>
    <contour>
      <point x="236" y="500" type="curve"/>
      <point x="173" y="500"/>
      <point x="139" y="464"/>
      <point x="114" y="415" type="curve"/>
      <point x="112" y="415" type="line"/>
      <point x="109" y="492" type="line"/>
      <point x="33" y="492" type="line"/>
      <point x="33" y="472" type="line"/>
      <point x="80" y="472"/>
      <point x="85" y="467"/>
      <point x="85" y="397" type="curve" smooth="yes"/>
      <point x="85" y="0" type="line"/>
      <point x="113" y="0" type="line"/>
      <point x="113" y="289" type="line" smooth="yes"/>
      <point x="113" y="423"/>
      <point x="166" y="475"/>
      <point x="234" y="475" type="curve" smooth="yes"/>
      <point x="309" y="475"/>
      <point x="341" y="420"/>
      <point x="341" y="307" type="curve" smooth="yes"/>
      <point x="341" y="218"/>
      <point x="314" y="103"/>
      <point x="267" y="0" type="curve"/>
      <point x="298" y="0" type="line"/>
      <point x="342" y="102"/>
      <point x="369" y="216"/>
      <point x="369" y="306" type="curve" smooth="yes"/>
      <point x="369" y="446"/>
      <point x="321" y="500"/>
    </contour>
  </outline>
</glyph>
<glyph name="uni057F" format="2">
  <advance width="686"/>
  <unicode hex="057F"/>
  <note>
uni057F
</note>
  <outline>
    <contour>
      <point x="608" y="96" type="curve" smooth="yes"/>
      <point x="608" y="321" type="line" smooth="yes"/>
      <point x="608" y="444"/>
      <point x="570" y="500"/>
      <point x="479" y="500" type="curve" smooth="yes"/>
      <point x="416" y="500"/>
      <point x="384" y="464"/>
      <point x="359" y="415" type="curve"/>
      <point x="357" y="415" type="line"/>
      <point x="354" y="492" type="line"/>
      <point x="278" y="492" type="line"/>
      <point x="278" y="472" type="line"/>
      <point x="325" y="472"/>
      <point x="330" y="467"/>
      <point x="330" y="397" type="curve" smooth="yes"/>
      <point x="330" y="203" type="line" smooth="yes"/>
      <point x="330" y="104"/>
      <point x="292" y="15"/>
      <point x="208" y="15" type="curve" smooth="yes"/>
      <point x="138" y="15"/>
      <point x="106" y="70"/>
      <point x="106" y="183" type="curve" smooth="yes"/>
      <point x="106" y="492" type="line"/>
      <point x="26" y="492" type="line"/>
      <point x="26" y="472" type="line"/>
      <point x="70" y="472"/>
      <point x="78" y="467"/>
      <point x="78" y="399" type="curve" smooth="yes"/>
      <point x="78" y="184" type="line" smooth="yes"/>
      <point x="78" y="44"/>
      <point x="126" y="-10"/>
      <point x="206" y="-10" type="curve" smooth="yes"/>
      <point x="267" y="-10"/>
      <point x="304" y="26"/>
      <point x="328" y="77" type="curve"/>
      <point x="332" y="77" type="line"/>
      <point x="334" y="0" type="line"/>
      <point x="410" y="0" type="line"/>
      <point x="410" y="20" type="line"/>
      <point x="365" y="20"/>
      <point x="358" y="25"/>
      <point x="358" y="101" type="curve" smooth="yes"/>
      <point x="358" y="289" type="line" smooth="yes"/>
      <point x="358" y="423"/>
      <point x="413" y="475"/>
      <point x="481" y="475" type="curve" smooth="yes"/>
      <point x="553" y="475"/>
      <point x="580" y="415"/>
      <point x="580" y="322" type="curve" smooth="yes"/>
      <point x="580" y="0" type="line"/>
      <point x="660" y="0" type="line"/>
      <point x="660" y="20" type="line"/>
      <point x="617" y="20"/>
      <point x="608" y="26"/>
    </contour>
  </outline>
</glyph>
<glyph name="uni0581" format="2">
  <advance width="403"/>
  <unicode hex="0581"/>
  <note>
uni0581
</note>
  <outline>
    <contour>
      <point x="186" y="-240" type="curve" smooth="yes"/>
      <point x="277" y="-240"/>
      <point x="331" y="-202"/>
      <point x="331" y="-26" type="curve" smooth="yes"/>
      <point x="331" y="492" type="line"/>
      <point x="308" y="492" type="line"/>
      <point x="304" y="404" type="line"/>
      <point x="302" y="404" type="line"/>
      <point x="282" y="470"/>
      <point x="250" y="502"/>
      <point x="192" y="502" type="curve" smooth="yes"/>
      <point x="97" y="502"/>
      <point x="48" y="418"/>
      <point x="48" y="243" type="curve" smooth="yes"/>
      <point x="48" y="66"/>
      <point x="98" y="-10"/>
      <point x="184" y="-10" type="curve" smooth="yes"/>
      <point x="250" y="-10"/>
      <point x="284" y="24"/>
      <point x="303" y="90" type="curve"/>
      <point x="305" y="90" type="line"/>
      <point x="303" y="72"/>
      <point x="303" y="60"/>
      <point x="303" y="9" type="curve" smooth="yes"/>
      <point x="303" y="-19" type="line" smooth="yes"/>
      <point x="303" y="-185"/>
      <point x="262" y="-215"/>
      <point x="186" y="-215" type="curve" smooth="yes"/>
      <point x="116" y="-215"/>
      <point x="81" y="-170"/>
      <point x="81" y="-111" type="curve"/>
      <point x="72" y="-111"/>
      <point x="64" y="-129"/>
      <point x="64" y="-149" type="curve" smooth="yes"/>
      <point x="64" y="-195"/>
      <point x="107" y="-240"/>
    </contour>
    <contour>
      <point x="188" y="15" type="curve" smooth="yes"/>
      <point x="111" y="15"/>
      <point x="76" y="85"/>
      <point x="76" y="242" type="curve" smooth="yes"/>
      <point x="76" y="398"/>
      <point x="112" y="477"/>
      <point x="196" y="477" type="curve" smooth="yes"/>
      <point x="269" y="477"/>
      <point x="303" y="382"/>
      <point x="303" y="243" type="curve" smooth="yes"/>
      <point x="303" y="52"/>
      <point x="246" y="15"/>
    </contour>
  </outline>
</glyph>
<glyph name="uni0582" format="2">
  <advance width="208"/>
  <unicode hex="0582"/>
  <note>
uni0582
</note>
  <outline>
    <contour>
      <point x="196" y="100" type="line"/>
      <point x="176" y="100" type="line"/>
      <point x="176" y="28"/>
      <point x="172" y="25"/>
      <point x="134" y="25" type="curve" smooth="yes"/>
      <point x="113" y="25" type="line"/>
      <point x="113" y="492" type="line"/>
      <point x="35" y="492" type="line"/>
      <point x="35" y="472" type="line"/>
      <point x="43" y="472" type="line" smooth="yes"/>
      <point x="81" y="472"/>
      <point x="85" y="467"/>
      <point x="85" y="428" type="curve" smooth="yes"/>
      <point x="85" y="0" type="line"/>
      <point x="196" y="0" type="line"/>
    </contour>
  </outline>
</glyph>
<glyph name="uni0583" format="2">
  <advance width="686"/>
  <unicode hex="0583"/>
  <note>
uni0583
</note>
  <outline>
    <contour>
      <point x="608" y="96" type="curve" smooth="yes"/>
      <point x="608" y="321" type="line" smooth="yes"/>
      <point x="608" y="444"/>
      <point x="570" y="500"/>
      <point x="479" y="500" type="curve" smooth="yes"/>
      <point x="416" y="500"/>
      <point x="384" y="466"/>
      <point x="359" y="417" type="curve"/>
      <point x="355" y="417" type="line"/>
      <point x="356" y="444"/>
      <point x="358" y="470"/>
      <point x="358" y="497" type="curve" smooth="yes"/>
      <point x="358" y="760" type="line"/>
      <point x="278" y="760" type="line"/>
      <point x="278" y="740" type="line"/>
      <point x="325" y="740"/>
      <point x="330" y="735"/>
      <point x="330" y="665" type="curve" smooth="yes"/>
      <point x="330" y="203" type="line" smooth="yes"/>
      <point x="330" y="104"/>
      <point x="292" y="15"/>
      <point x="208" y="15" type="curve" smooth="yes"/>
      <point x="138" y="15"/>
      <point x="106" y="70"/>
      <point x="106" y="183" type="curve" smooth="yes"/>
      <point x="106" y="492" type="line"/>
      <point x="26" y="492" type="line"/>
      <point x="26" y="472" type="line"/>
      <point x="70" y="472"/>
      <point x="78" y="467"/>
      <point x="78" y="399" type="curve" smooth="yes"/>
      <point x="78" y="184" type="line" smooth="yes"/>
      <point x="78" y="44"/>
      <point x="126" y="-10"/>
      <point x="206" y="-10" type="curve" smooth="yes"/>
      <point x="267" y="-10"/>
      <point x="304" y="26"/>
      <point x="328" y="77" type="curve"/>
      <point x="332" y="77" type="line"/>
      <point x="331" y="52"/>
      <point x="330" y="26"/>
      <point x="330" y="0" type="curve" smooth="yes"/>
      <point x="330" y="-232" type="line"/>
      <point x="410" y="-232" type="line"/>
      <point x="410" y="-212" type="line"/>
      <point x="366" y="-212"/>
      <point x="358" y="-209"/>
      <point x="358" y="-136" type="curve" smooth="yes"/>
      <point x="358" y="291" type="line" smooth="yes"/>
      <point x="358" y="425"/>
      <point x="413" y="475"/>
      <point x="481" y="475" type="curve" smooth="yes"/>
      <point x="553" y="475"/>
      <point x="580" y="415"/>
      <point x="580" y="322" type="curve" smooth="yes"/>
      <point x="580" y="0" type="line"/>
      <point x="660" y="0" type="line"/>
      <point x="660" y="20" type="line"/>
      <point x="617" y="20"/>
      <point x="608" y="26"/>
    </contour>
  </outline>
</glyph>
<glyph name="uni0584" format="2">
  <advance width="415"/>
  <unicode hex="0584"/>
  <note>
uni0584
</note>
  <outline>
    <contour>
      <point x="223" y="502" type="curve" smooth="yes"/>
      <point x="165" y="502"/>
      <point x="131" y="468"/>
      <point x="113" y="404" type="curve"/>
      <point x="111" y="404" type="line"/>
      <point x="107" y="492" type="line"/>
      <point x="32" y="492" type="line"/>
      <point x="32" y="472" type="line"/>
      <point x="84" y="472"/>
      <point x="84" y="468"/>
      <point x="84" y="394" type="curve" smooth="yes"/>
      <point x="84" y="-232" type="line"/>
      <point x="168" y="-232" type="line"/>
      <point x="168" y="-212" type="line"/>
      <point x="116" y="-212"/>
      <point x="112" y="-208"/>
      <point x="112" y="-134" type="curve" smooth="yes"/>
      <point x="112" y="-31" type="line" smooth="yes"/>
      <point x="112" y="29"/>
      <point x="112" y="70"/>
      <point x="110" y="88" type="curve"/>
      <point x="112" y="88" type="line"/>
      <point x="131" y="22"/>
      <point x="165" y="-10"/>
      <point x="231" y="-10" type="curve" smooth="yes"/>
      <point x="317" y="-10"/>
      <point x="367" y="66"/>
      <point x="367" y="243" type="curve" smooth="yes"/>
      <point x="367" y="418"/>
      <point x="318" y="502"/>
    </contour>
    <contour>
      <point x="227" y="15" type="curve" smooth="yes"/>
      <point x="169" y="15"/>
      <point x="112" y="52"/>
      <point x="112" y="243" type="curve" smooth="yes"/>
      <point x="112" y="382"/>
      <point x="146" y="477"/>
      <point x="219" y="477" type="curve" smooth="yes"/>
      <point x="303" y="477"/>
      <point x="339" y="398"/>
      <point x="339" y="242" type="curve" smooth="yes"/>
      <point x="339" y="85"/>
      <point x="304" y="15"/>
    </contour>
    <contour>
      <point x="19" y="-100" type="line"/>
      <point x="341" y="-100" type="line"/>
      <point x="341" y="-75" type="line"/>
      <point x="19" y="-75" type="line"/>
    </contour>
  </outline>
</glyph>
<glyph name="uni0585" format="2">
  <advance width="410"/>
  <unicode hex="0585"/>
  <note>
uni0585
</note>
  <anchor x="205" y="492" name="top"/>
  <outline>
    <contour>
      <point x="205" y="-10" type="curve" smooth="yes"/>
      <point x="308" y="-10"/>
      <point x="362" y="67"/>
      <point x="362" y="247" type="curve" smooth="yes"/>
      <point x="362" y="416"/>
      <point x="314" y="502"/>
      <point x="207" y="502" type="curve" smooth="yes"/>
      <point x="97" y="502"/>
      <point x="48" y="418"/>
      <point x="48" y="247" type="curve" smooth="yes"/>
      <point x="48" y="70"/>
      <point x="105" y="-10"/>
    </contour>
    <contour>
      <point x="206" y="15" type="curve" smooth="yes"/>
      <point x="117" y="15"/>
      <point x="76" y="95"/>
      <point x="76" y="247" type="curve" smooth="yes"/>
      <point x="76" y="401"/>
      <point x="106" y="477"/>
      <point x="205" y="477" type="curve" smooth="yes"/>
      <point x="301" y="477"/>
      <point x="334" y="401"/>
      <point x="334" y="247" type="curve" smooth="yes"/>
      <point x="334" y="96"/>
      <point x="301" y="15"/>
    </contour>
  </outline>
</glyph>
<glyph name="uni0586" format="2">
  <advance width="448"/>
  <unicode hex="0586"/>
  <note>
uni0586
</note>
  <outline>
    <contour>
      <point x="217" y="-10" type="curve" smooth="yes"/>
      <point x="341" y="-10"/>
      <point x="410" y="72"/>
      <point x="410" y="199" type="curve" smooth="yes"/>
      <point x="410" y="328"/>
      <point x="353" y="404"/>
      <point x="221" y="453" type="curve" smooth="yes"/>
      <point x="105" y="496"/>
      <point x="76" y="537"/>
      <point x="76" y="614" type="curve" smooth="yes"/>
      <point x="76" y="678"/>
      <point x="114" y="735"/>
      <point x="207" y="735" type="curve"/>
      <point x="207" y="760" type="line"/>
      <point x="99" y="760"/>
      <point x="48" y="696"/>
      <point x="48" y="614" type="curve" smooth="yes"/>
      <point x="48" y="523"/>
      <point x="83" y="478"/>
      <point x="212" y="428" type="curve"/>
      <point x="340" y="378"/>
      <point x="382" y="311"/>
      <point x="382" y="198" type="curve" smooth="yes"/>
      <point x="382" y="83"/>
      <point x="327" y="15"/>
      <point x="217" y="15" type="curve" smooth="yes"/>
      <point x="93" y="15"/>
      <point x="50" y="86"/>
      <point x="50" y="186" type="curve"/>
      <point x="35" y="186"/>
      <point x="25" y="175"/>
      <point x="25" y="161" type="curve" smooth="yes"/>
      <point x="25" y="77"/>
      <point x="76" y="-10"/>
    </contour>
    <contour>
      <point x="207" y="-232" type="line"/>
      <point x="280" y="-232" type="line"/>
      <point x="280" y="-212" type="line"/>
      <point x="238" y="-212"/>
      <point x="234" y="-207"/>
      <point x="234" y="-138" type="curve" smooth="yes"/>
      <point x="234" y="760" type="line"/>
      <point x="207" y="760" type="line"/>
    </contour>
  </outline>
</glyph>
<glyph name="uni0587" format="2">
  <advance width="456"/>
  <unicode hex="0587"/>
  <note>
uni0587
</note>
  <outline>
    <contour>
      <point x="206" y="-10" type="curve" smooth="yes"/>
      <point x="267" y="-10"/>
      <point x="304" y="26"/>
      <point x="328" y="77" type="curve"/>
      <point x="332" y="77" type="line"/>
      <point x="334" y="0" type="line"/>
      <point x="358" y="0" type="line"/>
      <point x="358" y="492" type="line"/>
      <point x="278" y="492" type="line"/>
      <point x="278" y="472" type="line"/>
      <point x="319" y="472"/>
      <point x="330" y="468"/>
      <point x="330" y="382" type="curve" smooth="yes"/>
      <point x="330" y="203" type="line" smooth="yes"/>
      <point x="330" y="104"/>
      <point x="292" y="15"/>
      <point x="208" y="15" type="curve" smooth="yes"/>
      <point x="138" y="15"/>
      <point x="106" y="70"/>
      <point x="106" y="183" type="curve" smooth="yes"/>
      <point x="106" y="760" type="line"/>
      <point x="26" y="760" type="line"/>
      <point x="26" y="740" type="line"/>
      <point x="70" y="740"/>
      <point x="78" y="735"/>
      <point x="78" y="667" type="curve" smooth="yes"/>
      <point x="78" y="184" type="line" smooth="yes"/>
      <point x="78" y="44"/>
      <point x="126" y="-10"/>
    </contour>
    <contour>
      <point x="348" y="0" type="line"/>
      <point x="450" y="0" type="line"/>
      <point x="450" y="25" type="line"/>
      <point x="348" y="25" type="line"/>
    </contour>
  </outline>
</glyph>
<glyph name="uni0588" format="2">
  <advance width="186"/>
  <unicode hex="0588"/>
  <note>
uni0575
</note>
  <outline>
    <contour>
      <point x="78" y="126" type="line" smooth="yes"/>
      <point x="78" y="10"/>
      <point x="110" y="-34"/>
      <point x="110" y="-131" type="curve" smooth="yes"/>
      <point x="110" y="-191"/>
      <point x="84" y="-207"/>
      <point x="41" y="-207" type="curve" smooth="yes"/>
      <point x="35" y="-207" type="line"/>
      <point x="35" y="-232" type="line"/>
      <point x="43" y="-232" type="line" smooth="yes"/>
      <point x="105" y="-232"/>
      <point x="138" y="-199"/>
      <point x="138" y="-130" type="curve" smooth="yes"/>
      <point x="138" y="-24"/>
      <point x="106" y="18"/>
      <point x="106" y="125" type="curve" smooth="yes"/>
      <point x="106" y="492" type="line"/>
      <point x="26" y="492" type="line"/>
      <point x="26" y="472" type="line"/>
      <point x="35" y="472" type="line" smooth="yes"/>
      <point x="71" y="472"/>
      <point x="78" y="462"/>
      <point x="78" y="399" type="curve" smooth="yes"/>
    </contour>
    <contour>
      <point x="8" y="112" type="line"/>
      <point x="8" y="87" type="line"/>
      <point x="176" y="87" type="line"/>
      <point x="176" y="112" type="line"/>
    </contour>
  </outline>
</glyph>
<glyph name="uni058A" format="2">
  <advance width="328"/>
  <unicode hex="058A"/>
  <note>
uni058A
</note>
  <outline>
    <contour>
      <point x="143" y="228" type="curve" smooth="yes"/>
      <point x="193" y="228"/>
      <point x="241" y="243"/>
      <point x="286" y="265" type="curve"/>
      <point x="278" y="288" type="line"/>
      <point x="235" y="267"/>
      <point x="188" y="253"/>
      <point x="147" y="253" type="curve" smooth="yes"/>
      <point x="94" y="253"/>
      <point x="72" y="274"/>
      <point x="72" y="325" type="curve"/>
      <point x="47" y="325" type="line"/>
      <point x="47" y="255"/>
      <point x="80" y="228"/>
    </contour>
  </outline>
</glyph>
<glyph name="uni058E" format="2">
  <advance width="816"/>
  <unicode hex="058E"/>
  <outline>
    <contour>
      <point x="408" y="-9" type="curve" smooth="yes"/>
      <point x="458" y="-9"/>
      <point x="504" y="12"/>
      <point x="538" y="44" type="curve"/>
      <point x="634" y="46"/>
      <point x="719" y="124"/>
      <point x="721" y="226" type="curve"/>
      <point x="754" y="260"/>
      <point x="774" y="306"/>
      <point x="774" y="357" type="curve" smooth="yes"/>
      <point x="774" y="406"/>
      <point x="754" y="453"/>
      <point x="721" y="487" type="curve"/>
      <point x="719" y="583"/>
      <point x="642" y="666"/>
      <point x="539" y="670" type="curve"/>
      <point x="505" y="703"/>
      <point x="458" y="723"/>
      <point x="408" y="723" type="curve" smooth="yes"/>
      <point x="357" y="723"/>
      <point x="312" y="703"/>
      <point x="278" y="670" type="curve"/>
      <point x="181" y="668"/>
      <point x="99" y="591"/>
      <point x="95" y="488" type="curve"/>
      <point x="62" y="454"/>
      <point x="42" y="408"/>
      <point x="42" y="357" type="curve" smooth="yes"/>
      <point x="42" y="306"/>
      <point x="62" y="261"/>
      <point x="95" y="227" type="curve"/>
      <point x="97" y="127"/>
      <point x="178" y="47"/>
      <point x="278" y="43" type="curve"/>
      <point x="312" y="11"/>
      <point x="358" y="-9"/>
    </contour>
    <contour>
      <point x="252" y="74" type="curve"/>
      <point x="177" y="89"/>
      <point x="122" y="154"/>
      <point x="122" y="231" type="curve" smooth="yes"/>
      <point x="122" y="319"/>
      <point x="191" y="394"/>
      <point x="286" y="394" type="curve" smooth="yes"/>
      <point x="317" y="394"/>
      <point x="348" y="386"/>
      <point x="374" y="368" type="curve"/>
      <point x="285" y="352"/>
      <point x="218" y="275"/>
      <point x="218" y="182" type="curve" smooth="yes"/>
      <point x="218" y="142"/>
      <point x="230" y="105"/>
    </contour>
    <contour>
      <point x="408" y="19" type="curve" smooth="yes"/>
      <point x="320" y="19"/>
      <point x="247" y="92"/>
      <point x="247" y="182" type="curve" smooth="yes"/>
      <point x="247" y="260"/>
      <point x="303" y="325"/>
      <point x="377" y="340" type="curve"/>
      <point x="354" y="307"/>
      <point x="343" y="270"/>
      <point x="343" y="232" type="curve" smooth="yes"/>
      <point x="343" y="141"/>
      <point x="409" y="62"/>
      <point x="497" y="47" type="curve"/>
      <point x="472" y="30"/>
      <point x="441" y="19"/>
    </contour>
    <contour>
      <point x="97" y="267" type="curve"/>
      <point x="79" y="293"/>
      <point x="70" y="324"/>
      <point x="70" y="357" type="curve" smooth="yes"/>
      <point x="70" y="445"/>
      <point x="143" y="518"/>
      <point x="233" y="518" type="curve" smooth="yes"/>
      <point x="311" y="518"/>
      <point x="376" y="462"/>
      <point x="391" y="388" type="curve"/>
      <point x="358" y="411"/>
      <point x="321" y="422"/>
      <point x="283" y="422" type="curve" smooth="yes"/>
      <point x="192" y="422"/>
      <point x="114" y="356"/>
    </contour>
    <contour>
      <point x="534" y="72" type="curve" smooth="yes"/>
      <point x="442" y="72"/>
      <point x="371" y="143"/>
      <point x="371" y="235" type="curve" smooth="yes"/>
      <point x="371" y="266"/>
      <point x="379" y="297"/>
      <point x="397" y="323" type="curve"/>
      <point x="413" y="234"/>
      <point x="490" y="167"/>
      <point x="583" y="167" type="curve" smooth="yes"/>
      <point x="623" y="167"/>
      <point x="660" y="179"/>
      <point x="690" y="200" type="curve"/>
      <point x="675" y="127"/>
      <point x="615" y="72"/>
    </contour>
    <contour>
      <point x="419" y="391" type="curve"/>
      <point x="403" y="480"/>
      <point x="326" y="547"/>
      <point x="233" y="547" type="curve" smooth="yes"/>
      <point x="193" y="547"/>
      <point x="156" y="535"/>
      <point x="126" y="514" type="curve"/>
      <point x="141" y="591"/>
      <point x="204" y="642"/>
      <point x="282" y="642" type="curve" smooth="yes"/>
      <point x="374" y="642"/>
      <point x="445" y="571"/>
      <point x="445" y="479" type="curve" smooth="yes"/>
      <point x="445" y="448"/>
      <point x="437" y="417"/>
    </contour>
    <contour>
      <point x="583" y="196" type="curve" smooth="yes"/>
      <point x="505" y="196"/>
      <point x="440" y="252"/>
      <point x="425" y="326" type="curve"/>
      <point x="458" y="303"/>
      <point x="495" y="292"/>
      <point x="533" y="292" type="curve" smooth="yes"/>
      <point x="624" y="292"/>
      <point x="703" y="358"/>
      <point x="718" y="446" type="curve"/>
      <point x="736" y="421"/>
      <point x="746" y="390"/>
      <point x="746" y="357" type="curve" smooth="yes"/>
      <point x="746" y="269"/>
      <point x="673" y="196"/>
    </contour>
    <contour>
      <point x="439" y="374" type="curve"/>
      <point x="462" y="407"/>
      <point x="473" y="444"/>
      <point x="473" y="482" type="curve" smooth="yes"/>
      <point x="473" y="573"/>
      <point x="407" y="652"/>
      <point x="319" y="667" type="curve"/>
      <point x="344" y="685"/>
      <point x="376" y="695"/>
      <point x="408" y="695" type="curve" smooth="yes"/>
      <point x="496" y="695"/>
      <point x="569" y="622"/>
      <point x="569" y="532" type="curve" smooth="yes"/>
      <point x="569" y="454"/>
      <point x="513" y="389"/>
    </contour>
    <contour>
      <point x="530" y="320" type="curve" smooth="yes"/>
      <point x="499" y="320"/>
      <point x="468" y="328"/>
      <point x="442" y="346" type="curve"/>
      <point x="531" y="362"/>
      <point x="598" y="439"/>
      <point x="598" y="532" type="curve" smooth="yes"/>
      <point x="598" y="572"/>
      <point x="586" y="609"/>
      <point x="565" y="640" type="curve"/>
      <point x="637" y="625"/>
      <point x="694" y="562"/>
      <point x="694" y="483" type="curve" smooth="yes"/>
      <point x="694" y="395"/>
      <point x="625" y="320"/>
    </contour>
  </outline>
</glyph>
<glyph name="uni058F" format="2">
  <advance width="483"/>
  <unicode hex="058F"/>
  <note>
uni058F
</note>
  <outline>
    <contour>
      <point x="48" y="368" type="line"/>
      <point x="76" y="368" type="line"/>
      <point x="76" y="445" type="line" smooth="yes"/>
      <point x="76" y="558"/>
      <point x="118" y="649"/>
      <point x="211" y="649" type="curve" smooth="yes"/>
      <point x="293" y="649"/>
      <point x="343" y="588"/>
      <point x="343" y="454" type="curve" smooth="yes"/>
      <point x="343" y="0" type="line"/>
      <point x="414" y="0" type="line"/>
      <point x="414" y="20" type="line"/>
      <point x="376" y="20"/>
      <point x="371" y="31"/>
      <point x="371" y="108" type="curve" smooth="yes"/>
      <point x="371" y="450" type="line" smooth="yes"/>
      <point x="371" y="613"/>
      <point x="309" y="674"/>
      <point x="211" y="674" type="curve" smooth="yes"/>
      <point x="103" y="674"/>
      <point x="48" y="576"/>
      <point x="48" y="446" type="curve" smooth="yes"/>
    </contour>
    <contour>
      <point x="245" y="307" type="line"/>
      <point x="471" y="307" type="line"/>
      <point x="471" y="332" type="line"/>
      <point x="245" y="332" type="line"/>
    </contour>
    <contour>
      <point x="245" y="219" type="line"/>
      <point x="471" y="219" type="line"/>
      <point x="471" y="244" type="line"/>
      <point x="245" y="244" type="line"/>
    </contour>
  </outline>
</glyph>
<glyph name="hyphentwo" format="2">
  <advance width="236"/>
  <unicode hex="2010"/>
  <outline>
    <contour>
      <point x="20" y="259" type="line"/>
      <point x="216" y="259" type="line"/>
      <point x="216" y="287" type="line"/>
      <point x="20" y="287" type="line"/>
    </contour>
  </outline>
</glyph>
<glyph name="uniFB13" format="2">
  <advance width="821"/>
  <unicode hex="FB13"/>
  <note>
uniFB13
</note>
  <outline>
    <contour>
      <point x="358" y="101" type="curve" smooth="yes"/>
      <point x="358" y="471" type="line" smooth="yes"/>
      <point x="358" y="508"/>
      <point x="349" y="547"/>
      <point x="322" y="585" type="curve" smooth="yes"/>
      <point x="300" y="616"/>
      <point x="292" y="653"/>
      <point x="292" y="679" type="curve" smooth="yes"/>
      <point x="292" y="717"/>
      <point x="303" y="741"/>
      <point x="343" y="741" type="curve" smooth="yes"/>
      <point x="379" y="741"/>
      <point x="425" y="723"/>
      <point x="481" y="680" type="curve"/>
      <point x="497" y="699" type="line"/>
      <point x="436" y="748"/>
      <point x="383" y="766"/>
      <point x="343" y="766" type="curve" smooth="yes"/>
      <point x="297" y="766"/>
      <point x="265" y="738"/>
      <point x="265" y="678" type="curve" smooth="yes"/>
      <point x="265" y="646"/>
      <point x="275" y="606"/>
      <point x="298" y="574" type="curve" smooth="yes"/>
      <point x="321" y="542"/>
      <point x="330" y="503"/>
      <point x="330" y="472" type="curve" smooth="yes"/>
      <point x="330" y="203" type="line" smooth="yes"/>
      <point x="330" y="104"/>
      <point x="292" y="15"/>
      <point x="208" y="15" type="curve" smooth="yes"/>
      <point x="138" y="15"/>
      <point x="106" y="70"/>
      <point x="106" y="183" type="curve" smooth="yes"/>
      <point x="106" y="492" type="line"/>
      <point x="26" y="492" type="line"/>
      <point x="26" y="472" type="line"/>
      <point x="70" y="472"/>
      <point x="78" y="467"/>
      <point x="78" y="399" type="curve" smooth="yes"/>
      <point x="78" y="184" type="line" smooth="yes"/>
      <point x="78" y="44"/>
      <point x="126" y="-10"/>
      <point x="206" y="-10" type="curve" smooth="yes"/>
      <point x="267" y="-10"/>
      <point x="304" y="26"/>
      <point x="328" y="77" type="curve"/>
      <point x="332" y="77" type="line"/>
      <point x="334" y="0" type="line"/>
      <point x="410" y="0" type="line"/>
      <point x="410" y="20" type="line"/>
      <point x="365" y="20"/>
      <point x="358" y="25"/>
    </contour>
    <contour>
      <point x="736" y="101" type="curve" smooth="yes"/>
      <point x="736" y="492" type="line"/>
      <point x="656" y="492" type="line"/>
      <point x="656" y="472" type="line"/>
      <point x="697" y="472"/>
      <point x="708" y="468"/>
      <point x="708" y="382" type="curve" smooth="yes"/>
      <point x="708" y="203" type="line" smooth="yes"/>
      <point x="708" y="104"/>
      <point x="665" y="15"/>
      <point x="581" y="15" type="curve" smooth="yes"/>
      <point x="506" y="15"/>
      <point x="474" y="70"/>
      <point x="474" y="183" type="curve" smooth="yes"/>
      <point x="474" y="298"/>
      <point x="509" y="455"/>
      <point x="565" y="572" type="curve"/>
      <point x="539" y="583" type="line"/>
      <point x="483" y="466"/>
      <point x="446" y="299"/>
      <point x="446" y="184" type="curve" smooth="yes"/>
      <point x="446" y="44"/>
      <point x="494" y="-10"/>
      <point x="579" y="-10" type="curve" smooth="yes"/>
      <point x="640" y="-10"/>
      <point x="682" y="26"/>
      <point x="706" y="77" type="curve"/>
      <point x="710" y="77" type="line"/>
      <point x="712" y="0" type="line"/>
      <point x="788" y="0" type="line"/>
      <point x="788" y="20" type="line"/>
      <point x="743" y="20"/>
      <point x="736" y="25"/>
    </contour>
    <contour>
      <point x="497" y="699" type="curve"/>
      <point x="469" y="699" type="line"/>
      <point x="467" y="690"/>
      <point x="466" y="682"/>
      <point x="466" y="672" type="curve" smooth="yes"/>
      <point x="466" y="612"/>
      <point x="498" y="578"/>
      <point x="542" y="566" type="curve"/>
      <point x="565" y="572" type="line"/>
      <point x="565" y="587" type="line"/>
      <point x="520" y="597"/>
      <point x="494" y="619"/>
      <point x="494" y="672" type="curve" smooth="yes"/>
      <point x="494" y="682"/>
      <point x="495" y="691"/>
    </contour>
  </outline>
</glyph>
<glyph name="uniFB16" format="2">
  <advance width="821"/>
  <unicode hex="FB16"/>
  <note>
uniFB16
</note>
  <outline>
    <contour>
      <point x="330" y="-232" type="line"/>
      <point x="358" y="-232" type="line"/>
      <point x="358" y="679" type="line" smooth="yes"/>
      <point x="358" y="717"/>
      <point x="365" y="741"/>
      <point x="393" y="741" type="curve" smooth="yes"/>
      <point x="414" y="741"/>
      <point x="435" y="728"/>
      <point x="481" y="680" type="curve"/>
      <point x="497" y="699" type="line"/>
      <point x="444" y="753"/>
      <point x="415" y="766"/>
      <point x="389" y="766" type="curve" smooth="yes"/>
      <point x="352" y="766"/>
      <point x="330" y="738"/>
      <point x="330" y="678" type="curve" smooth="yes"/>
      <point x="330" y="203" type="line" smooth="yes"/>
      <point x="330" y="104"/>
      <point x="292" y="15"/>
      <point x="208" y="15" type="curve" smooth="yes"/>
      <point x="138" y="15"/>
      <point x="106" y="70"/>
      <point x="106" y="183" type="curve" smooth="yes"/>
      <point x="106" y="492" type="line"/>
      <point x="26" y="492" type="line"/>
      <point x="26" y="472" type="line"/>
      <point x="70" y="472"/>
      <point x="78" y="467"/>
      <point x="78" y="399" type="curve" smooth="yes"/>
      <point x="78" y="184" type="line" smooth="yes"/>
      <point x="78" y="44"/>
      <point x="126" y="-10"/>
      <point x="206" y="-10" type="curve" smooth="yes"/>
      <point x="267" y="-10"/>
      <point x="304" y="26"/>
      <point x="328" y="77" type="curve"/>
      <point x="332" y="77" type="line"/>
      <point x="331" y="55"/>
      <point x="330" y="26"/>
      <point x="330" y="4" type="curve" smooth="yes"/>
    </contour>
    <contour>
      <point x="350" y="-232" type="line"/>
      <point x="461" y="-232" type="line"/>
      <point x="461" y="-204" type="line"/>
      <point x="350" y="-204" type="line"/>
    </contour>
    <contour>
      <point x="579" y="-10" type="curve" smooth="yes"/>
      <point x="640" y="-10"/>
      <point x="682" y="26"/>
      <point x="706" y="77" type="curve"/>
      <point x="710" y="77" type="line"/>
      <point x="712" y="0" type="line"/>
      <point x="788" y="0" type="line"/>
      <point x="788" y="20" type="line"/>
      <point x="743" y="20"/>
      <point x="736" y="25"/>
      <point x="736" y="101" type="curve" smooth="yes"/>
      <point x="736" y="492" type="line"/>
      <point x="656" y="492" type="line"/>
      <point x="656" y="472" type="line"/>
      <point x="697" y="472"/>
      <point x="708" y="468"/>
      <point x="708" y="382" type="curve" smooth="yes"/>
      <point x="708" y="203" type="line" smooth="yes"/>
      <point x="708" y="104"/>
      <point x="665" y="15"/>
      <point x="581" y="15" type="curve" smooth="yes"/>
      <point x="506" y="15"/>
      <point x="474" y="70"/>
      <point x="474" y="183" type="curve" smooth="yes"/>
      <point x="474" y="298"/>
      <point x="509" y="455"/>
      <point x="565" y="572" type="curve"/>
      <point x="539" y="583" type="line"/>
      <point x="483" y="466"/>
      <point x="446" y="299"/>
      <point x="446" y="184" type="curve" smooth="yes"/>
      <point x="446" y="44"/>
      <point x="494" y="-10"/>
    </contour>
    <contour>
      <point x="542" y="566" type="curve"/>
      <point x="565" y="572" type="line"/>
      <point x="565" y="587" type="line"/>
      <point x="520" y="597"/>
      <point x="494" y="619"/>
      <point x="494" y="672" type="curve" smooth="yes"/>
      <point x="494" y="682"/>
      <point x="495" y="691"/>
      <point x="497" y="699" type="curve"/>
      <point x="469" y="699" type="line"/>
      <point x="467" y="690"/>
      <point x="466" y="682"/>
      <point x="466" y="672" type="curve" smooth="yes"/>
      <point x="466" y="612"/>
      <point x="498" y="578"/>
    </contour>
  </outline>
</glyph>
